<svg width="30" height="30" viewBox="0 0 30 30" fill="none" xmlns="http://www.w3.org/2000/svg">
<path d="M2.5 28.75V26.25H3.75C4.41667 26.25 5.0625 26.1458 5.6875 25.9375C6.3125 25.7292 6.91667 25.4167 7.5 25C8.08333 25.4167 8.6875 25.7242 9.3125 25.9225C9.9375 26.1208 10.5833 26.2196 11.25 26.2188C11.9167 26.2179 12.5679 26.1188 13.2037 25.9213C13.8396 25.7238 14.4383 25.4167 15 25C15.5833 25.4167 16.1875 25.7242 16.8125 25.9225C17.4375 26.1208 18.0833 26.2196 18.75 26.2188C19.4167 26.2179 20.0679 26.1188 20.7038 25.9213C21.3396 25.7238 21.9383 25.4167 22.5 25C23.0625 25.4167 23.6617 25.7292 24.2975 25.9375C24.9333 26.1458 25.5842 26.25 26.25 26.25H27.5V28.75H26.25C25.6042 28.75 24.9688 28.6721 24.3438 28.5163C23.7188 28.3604 23.1042 28.1258 22.5 27.8125C21.8958 28.125 21.2812 28.3596 20.6562 28.5163C20.0312 28.6729 19.3958 28.7508 18.75 28.75C18.1042 28.7492 17.4688 28.6713 16.8438 28.5163C16.2188 28.3613 15.6042 28.1267 15 27.8125C14.3958 28.125 13.7812 28.3596 13.1562 28.5163C12.5312 28.6729 11.8958 28.7508 11.25 28.75C10.6042 28.7492 9.96875 28.6713 9.34375 28.5163C8.71875 28.3613 8.10417 28.1267 7.5 27.8125C6.89583 28.125 6.28125 28.3596 5.65625 28.5163C5.03125 28.6729 4.39583 28.7508 3.75 28.75H2.5ZM10.625 5.00001L17.5625 6.28126C17.8542 6.32293 18.1354 6.43751 18.4062 6.62501C18.6771 6.81251 18.9062 7.07293 19.0938 7.40626L20.1875 9.34376C20.7292 10.2813 21.4792 11.0417 22.4375 11.625C23.3958 12.2083 24.4583 12.5 25.625 12.5V15C24 15 22.5208 14.5938 21.1875 13.7813C19.8542 12.9688 18.8021 11.9063 18.0312 10.5938L15.2188 12.5L20 16.25V21.0625C20.3333 21.2917 20.6562 21.5313 20.9688 21.7813C21.2812 22.0313 21.5833 22.2708 21.875 22.5C21.4375 22.875 20.9583 23.1771 20.4375 23.4063C19.9167 23.6354 19.3542 23.75 18.75 23.75C18 23.75 17.3021 23.5729 16.6562 23.2188C16.0104 22.8646 15.4583 22.4167 15 21.875C14.5417 22.4167 13.9896 22.8646 13.3438 23.2188C12.6979 23.5729 12 23.75 11.25 23.75C11.0417 23.75 10.8383 23.7342 10.64 23.7025C10.4417 23.6708 10.2492 23.6242 10.0625 23.5625C8.27083 22.3333 6.77083 21.0938 5.5625 19.8438C4.35417 18.5938 3.75 17.5104 3.75 16.5938C3.75 15.9479 4 15.5208 4.5 15.3125C5 15.1042 5.52083 15 6.0625 15C6.66667 15 7.36458 15.0888 8.15625 15.2663C8.94792 15.4438 9.79167 15.6988 10.6875 16.0313L9.78125 10.75L13.6875 8.12501C13.625 8.12501 13.4742 8.09918 13.235 8.04751C12.9958 7.99584 12.73 7.94376 12.4375 7.89126C12.145 7.83876 11.8796 7.78668 11.6412 7.73501C11.4029 7.68334 11.2517 7.65709 11.1875 7.65626L7.65625 10.0625L6.25 8.00001L10.625 5.00001ZM12.875 13.875L13.4375 17.1875C14 17.4583 14.6979 17.8179 15.5312 18.2663C16.3646 18.7146 17.0208 19.0842 17.5 19.375V17.5L12.875 13.875ZM21.25 6.87501C20.5625 6.87501 19.9742 6.63042 19.485 6.14126C18.9958 5.65209 18.7508 5.06334 18.75 4.37501C18.7492 3.68667 18.9942 3.09834 19.485 2.61001C19.9758 2.12168 20.5642 1.87668 21.25 1.87501C21.9358 1.87334 22.5246 2.11834 23.0163 2.61001C23.5079 3.10168 23.7525 3.69001 23.75 4.37501C23.7475 5.06001 23.5029 5.64876 23.0163 6.14126C22.5296 6.63376 21.9408 6.87834 21.25 6.87501Z" fill="#0353A4"/>
</svg>
