<svg width="30" height="30" viewBox="0 0 30 30" fill="none" xmlns="http://www.w3.org/2000/svg">
<path d="M18.555 25H8.125C6.40125 25 5 23.5987 5 21.875C5 20.1513 6.40125 18.75 8.125 18.75H16.875C19.2875 18.75 21.25 16.7875 21.25 14.375C21.25 11.9625 19.2875 10 16.875 10H10.7987C10.3397 10.8999 9.77122 11.7395 9.10625 12.5H16.875C17.9087 12.5 18.75 13.3413 18.75 14.375C18.75 15.4087 17.9087 16.25 16.875 16.25H8.125C5.02375 16.25 2.5 18.7738 2.5 21.875C2.5 24.9762 5.02375 27.5 8.125 27.5H20.1163C19.5029 26.7285 18.9791 25.8897 18.555 25ZM6.25 2.5C4.1825 2.5 2.5 4.1825 2.5 6.25C2.5 10.235 6.25 12.5 6.25 12.5C6.25 12.5 10 10.2337 10 6.25C10 4.1825 8.3175 2.5 6.25 2.5ZM6.25 8.125C6.00369 8.12492 5.75981 8.07632 5.53228 7.98199C5.30475 7.88765 5.09803 7.74943 4.92392 7.5752C4.74981 7.40097 4.61172 7.19416 4.51753 6.96657C4.42335 6.73898 4.37492 6.49506 4.375 6.24875C4.37508 6.00244 4.42368 5.75856 4.51801 5.53103C4.61235 5.3035 4.75057 5.09678 4.9248 4.92267C5.09903 4.74856 5.30584 4.61047 5.53343 4.51628C5.76102 4.4221 6.00494 4.37367 6.25125 4.37375C6.7487 4.37392 7.2257 4.57168 7.57733 4.92355C7.92896 5.27541 8.12642 5.75255 8.12625 6.25C8.12608 6.74745 7.92832 7.22445 7.57645 7.57608C7.22459 7.92771 6.74745 8.12517 6.25 8.125Z" fill="#0353A4"/>
<path d="M23.75 17.5C21.6825 17.5 20 19.1825 20 21.25C20 25.235 23.75 27.5 23.75 27.5C23.75 27.5 27.5 25.2337 27.5 21.25C27.5 19.1825 25.8175 17.5 23.75 17.5ZM23.75 23.125C23.5037 23.1249 23.2598 23.0763 23.0323 22.982C22.8047 22.8877 22.598 22.7494 22.4239 22.5752C22.2498 22.401 22.1117 22.1942 22.0175 21.9666C21.9234 21.739 21.8749 21.4951 21.875 21.2488C21.8751 21.0024 21.9237 20.7586 22.018 20.531C22.1123 20.3035 22.2506 20.0968 22.4248 19.9227C22.599 19.7486 22.8058 19.6105 23.0334 19.5163C23.261 19.4221 23.5049 19.3737 23.7512 19.3737C24.2487 19.3739 24.7257 19.5717 25.0773 19.9235C25.429 20.2754 25.6264 20.7526 25.6262 21.25C25.6261 21.7474 25.4283 22.2245 25.0765 22.5761C24.7246 22.9277 24.2474 23.1252 23.75 23.125Z" fill="#0353A4"/>
</svg>
