<svg width="30" height="30" viewBox="0 0 30 30" fill="none" xmlns="http://www.w3.org/2000/svg">
<path d="M5 12.5C5 7.78625 5 5.42875 6.465 3.965C7.92875 2.5 10.2863 2.5 15 2.5C19.7137 2.5 22.0712 2.5 23.535 3.965C25 5.42875 25 7.78625 25 12.5V15C25 19.7137 25 22.0712 23.535 23.535C22.0712 25 19.7137 25 15 25C10.2863 25 7.92875 25 6.465 23.535C5 22.0712 5 19.7137 5 15V12.5Z" stroke="#0353A4" stroke-width="1.875"/>
<path d="M19.375 20H21.25M8.75 20H10.625M7.5 24.375V26.25C7.5 26.5815 7.6317 26.8995 7.86612 27.1339C8.10054 27.3683 8.41848 27.5 8.75 27.5H10.625C10.9565 27.5 11.2745 27.3683 11.5089 27.1339C11.7433 26.8995 11.875 26.5815 11.875 26.25V25M22.5 24.375V26.25C22.5 26.5815 22.3683 26.8995 22.1339 27.1339C21.8995 27.3683 21.5815 27.5 21.25 27.5H19.375C19.0435 27.5 18.7255 27.3683 18.4911 27.1339C18.2567 26.8995 18.125 26.5815 18.125 26.25V25M25 11.25H26.25C26.5815 11.25 26.8995 11.3817 27.1339 11.6161C27.3683 11.8505 27.5 12.1685 27.5 12.5V13.75C27.5 13.9441 27.4548 14.1354 27.368 14.309C27.2812 14.4826 27.1552 14.6336 27 14.75L25 16.25H5L3 14.75C2.84476 14.6336 2.71875 14.4826 2.63197 14.309C2.54518 14.1354 2.5 13.9441 2.5 13.75V12.5C2.5 12.1685 2.6317 11.8505 2.86612 11.6161C3.10054 11.3817 3.41848 11.25 3.75 11.25H5" stroke="#0353A4" stroke-width="1.875" stroke-linecap="round" stroke-linejoin="round"/>
<path d="M24.375 6.25H5.625" stroke="#0353A4" stroke-width="1.875" stroke-linecap="round"/>
</svg>
