<svg width="30" height="30" viewBox="0 0 30 30" fill="none" xmlns="http://www.w3.org/2000/svg">
<path d="M6.25 13.75L8.125 8.125H21.875L23.75 13.75M21.875 20C21.3777 20 20.9008 19.8025 20.5492 19.4508C20.1975 19.0992 20 18.6223 20 18.125C20 17.6277 20.1975 17.1508 20.5492 16.7992C20.9008 16.4475 21.3777 16.25 21.875 16.25C22.3723 16.25 22.8492 16.4475 23.2008 16.7992C23.5525 17.1508 23.75 17.6277 23.75 18.125C23.75 18.6223 23.5525 19.0992 23.2008 19.4508C22.8492 19.8025 22.3723 20 21.875 20ZM8.125 20C7.62772 20 7.15081 19.8025 6.79917 19.4508C6.44754 19.0992 6.25 18.6223 6.25 18.125C6.25 17.6277 6.44754 17.1508 6.79917 16.7992C7.15081 16.4475 7.62772 16.25 8.125 16.25C8.62228 16.25 9.09919 16.4475 9.45083 16.7992C9.80246 17.1508 10 17.6277 10 18.125C10 18.6223 9.80246 19.0992 9.45083 19.4508C9.09919 19.8025 8.62228 20 8.125 20ZM23.65 7.5C23.4 6.775 22.7 6.25 21.875 6.25H18.75V3.75H11.25V6.25H8.125C7.3 6.25 6.6 6.775 6.35 7.5L3.75 15V25C3.75 25.3315 3.8817 25.6495 4.11612 25.8839C4.35054 26.1183 4.66848 26.25 5 26.25H6.25C6.58152 26.25 6.89946 26.1183 7.13388 25.8839C7.3683 25.6495 7.5 25.3315 7.5 25V23.75H22.5V25C22.5 25.3315 22.6317 25.6495 22.8661 25.8839C23.1005 26.1183 23.4185 26.25 23.75 26.25H25C25.3315 26.25 25.6495 26.1183 25.8839 25.8839C26.1183 25.6495 26.25 25.3315 26.25 25V15L23.65 7.5Z" fill="#0353A4"/>
</svg>
