<svg width="30" height="30" viewBox="0 0 30 30" fill="none" xmlns="http://www.w3.org/2000/svg">
<g clip-path="url(#clip0_623_584527)">
<path d="M12.6278 14.2106L5.77352 8.84371C5.49239 8.61343 5.36546 8.32442 5.39275 7.97669C5.42004 7.62895 5.5874 7.36634 5.89484 7.18884L6.28455 6.96384C6.42601 6.88217 6.57728 6.83669 6.73838 6.82739C6.89949 6.8181 7.05286 6.84791 7.19849 6.91682L17.2242 11.5569L22.0296 8.78249C22.459 8.53457 22.9144 8.47512 23.396 8.60415C23.8786 8.73348 24.2439 9.01284 24.4918 9.44225C24.7397 9.87165 24.7988 10.3273 24.6691 10.8093C24.5393 11.2912 24.2603 11.6563 23.8321 11.9045L19.0267 14.6789L18.0322 25.6814C18.0191 25.842 17.9682 25.9897 17.8796 26.1246C17.791 26.2595 17.6756 26.368 17.5335 26.45L17.1448 26.6744C16.8381 26.8515 16.527 26.8651 16.2115 26.7153C15.896 26.5655 15.7092 26.3111 15.651 25.952L14.4303 17.3326L9.74291 20.0389L9.38208 23.9639C9.36757 24.0954 9.32733 24.2149 9.26134 24.3223C9.19536 24.4297 9.10571 24.5161 8.99241 24.5815L8.61352 24.8002C8.37753 24.9365 8.13961 24.9536 7.89977 24.8515C7.65992 24.7494 7.50981 24.5685 7.44943 24.309L6.4222 19.8747L3.09568 16.768C2.90137 16.5848 2.81981 16.3644 2.85102 16.1068C2.88222 15.8492 3.01598 15.6517 3.25227 15.5143L3.63657 15.2924C3.7441 15.2303 3.86122 15.1973 3.98793 15.1935C4.11463 15.1896 4.23893 15.2141 4.36083 15.2668L7.94041 16.9169L12.6278 14.2106Z" fill="#E9ECEF"/>
</g>
<defs>
<clipPath id="clip0_623_584527">
<rect width="30" height="30" fill="white" transform="matrix(0 -1 1 0 0 30)"/>
</clipPath>
</defs>
</svg>
