<svg width="166" height="31" viewBox="0 0 166 31" fill="none" xmlns="http://www.w3.org/2000/svg">
<path d="M16.256 1.53596C16.704 0.938622 17.312 0.533289 18.08 0.319956C18.8694 0.106623 19.616 0.106623 20.32 0.319956C21.0453 0.533289 21.6747 0.938622 22.208 1.53596C22.7627 2.13329 23.072 2.80529 23.136 3.55196C22.816 2.84796 22.4 2.22929 21.888 1.69596C21.376 1.16262 20.832 0.810623 20.256 0.639956C19.6587 0.469289 18.9973 0.469289 18.272 0.639956C17.5467 0.810623 16.8747 1.10929 16.256 1.53596ZM0.736016 6.68796C0.330682 6.23996 0.106682 5.68529 0.0640156 5.02396C0.0213489 4.36262 0.149349 3.75462 0.448016 3.19996C0.725349 2.66662 1.15202 2.23996 1.72802 1.91996C2.30402 1.57862 2.90135 1.45062 3.52002 1.53596C2.92268 1.66396 2.35735 1.89862 1.82402 2.23996C1.31202 2.55996 0.938682 2.93329 0.704016 3.35996C0.469349 3.78662 0.362682 4.30929 0.384016 4.92796C0.384016 5.54662 0.501349 6.13329 0.736016 6.68796ZM14.208 3.93596C14.4213 3.33862 14.816 2.82662 15.392 2.39996C15.968 1.97329 16.576 1.75996 17.216 1.75996C17.8347 1.75996 18.432 1.97329 19.008 2.39996C19.584 2.82662 19.9787 3.33862 20.192 3.93596C19.7867 3.44529 19.3067 3.09329 18.752 2.87996C18.2187 2.64529 17.7067 2.52796 17.216 2.52796C16.704 2.52796 16.1707 2.64529 15.616 2.87996C15.0827 3.09329 14.6133 3.44529 14.208 3.93596ZM8.22402 3.93596C8.41602 3.40262 8.77868 2.93329 9.31202 2.52796C9.84535 2.12262 10.4 1.91996 10.976 1.91996C11.552 1.91996 12.096 2.12262 12.608 2.52796C13.1413 2.93329 13.504 3.40262 13.696 3.93596C13.3333 3.48796 12.896 3.16796 12.384 2.97596C11.8933 2.78396 11.424 2.68796 10.976 2.68796C10.5067 2.68796 10.016 2.78396 9.50402 2.97596C9.01335 3.16796 8.58668 3.48796 8.22402 3.93596ZM4.16002 3.93596C4.28802 3.59462 4.52268 3.27462 4.86402 2.97596C5.20535 2.65596 5.56802 2.49596 5.95202 2.49596C6.31468 2.49596 6.66668 2.65596 7.00802 2.97596C7.34935 3.27462 7.58402 3.59462 7.71202 3.93596C7.47735 3.65862 7.20002 3.47729 6.88002 3.39196C6.56002 3.30662 6.25068 3.26396 5.95202 3.26396C5.65335 3.26396 5.33335 3.30662 4.99202 3.39196C4.67202 3.47729 4.39468 3.65862 4.16002 3.93596ZM3.13602 8.70396C2.70935 8.42662 2.35735 8.02129 2.08002 7.48796C1.80268 6.95462 1.71735 6.44262 1.82402 5.95196C1.93068 5.43996 2.21868 4.99196 2.68802 4.60796C3.15735 4.22396 3.64802 3.99996 4.16002 3.93596C3.71202 4.17062 3.36002 4.49062 3.10402 4.89596C2.84802 5.30129 2.67735 5.70662 2.59202 6.11196C2.50668 6.49596 2.49602 6.92262 2.56002 7.39196C2.62402 7.86129 2.81602 8.29862 3.13602 8.70396ZM20.736 4.03196C21.2694 4.22396 21.7387 4.58662 22.144 5.11996C22.5707 5.63196 22.7947 6.17596 22.816 6.75196C22.8374 7.32796 22.6454 7.89329 22.24 8.44796C21.8347 8.98129 21.3654 9.35462 20.832 9.56796C21.2587 9.18396 21.568 8.73596 21.76 8.22396C21.952 7.71196 22.048 7.23196 22.048 6.78396C22.048 6.31462 21.9414 5.83462 21.728 5.34396C21.5147 4.83196 21.184 4.39462 20.736 4.03196ZM9.02402 9.47196C8.78935 10.048 8.38402 10.5386 7.80802 10.944C7.23202 11.328 6.63468 11.5093 6.01602 11.488C5.39735 11.4666 4.81068 11.232 4.25602 10.784C3.72268 10.336 3.36002 9.82396 3.16802 9.24796C3.53068 9.71729 3.97868 10.08 4.51202 10.336C5.04535 10.5706 5.55735 10.6986 6.04802 10.72C6.53868 10.7413 7.05068 10.656 7.58402 10.464C8.13868 10.2506 8.61868 9.91996 9.02402 9.47196ZM13.504 10.368C13.2693 10.7306 12.928 11.0293 12.48 11.264C12.032 11.4986 11.5947 11.5733 11.168 11.488C10.7627 11.3813 10.4 11.1253 10.08 10.72C9.78135 10.3146 9.60002 9.89862 9.53602 9.47196C9.72802 9.85596 9.99468 10.144 10.336 10.336C10.6773 10.528 11.008 10.656 11.328 10.72C11.6693 10.8053 12.032 10.8373 12.416 10.816C12.8 10.7733 13.1627 10.624 13.504 10.368ZM20.832 10.08C21.3654 10.272 21.8347 10.6346 22.24 11.168C22.6454 11.68 22.848 12.224 22.848 12.8C22.848 13.376 22.6454 13.9306 22.24 14.464C21.8347 14.9973 21.3654 15.36 20.832 15.552C21.28 15.1893 21.6 14.7626 21.792 14.272C21.984 13.76 22.08 13.2693 22.08 12.8C22.08 12.352 21.984 11.8826 21.792 11.392C21.6 10.88 21.28 10.4426 20.832 10.08ZM13.504 15.424C13.056 15.2746 12.6507 14.9866 12.288 14.56C11.9253 14.112 11.744 13.6426 11.744 13.152C11.744 12.6826 11.9253 12.224 12.288 11.776C12.6507 11.328 13.056 11.0293 13.504 10.88C13.1413 11.1786 12.8853 11.5413 12.736 11.968C12.5867 12.3733 12.512 12.768 12.512 13.152C12.512 13.536 12.5867 13.9413 12.736 14.368C12.8853 14.7733 13.1413 15.1253 13.504 15.424ZM2.59202 15.712C2.86935 15.0506 3.34935 14.5386 4.03202 14.176C4.73602 13.792 5.45068 13.6213 6.17602 13.664C7.13602 13.7066 7.96802 14.0693 8.67202 14.752C8.54402 14.24 8.55468 13.7173 8.70402 13.184C8.87468 12.6293 9.17335 12.192 9.60002 11.872C9.30135 12.32 9.09868 12.8106 8.99202 13.344C8.88535 13.8773 8.89602 14.3466 9.02402 14.752C9.15202 15.1786 9.39735 15.584 9.76002 15.968C10.144 16.3306 10.592 16.6186 11.104 16.832C10.6773 16.8106 10.272 16.672 9.88802 16.416C9.50402 16.16 9.19468 15.84 8.96002 15.456C8.55468 15.0293 8.09602 14.688 7.58402 14.432C7.09335 14.1546 6.61335 14.0053 6.14402 13.984C5.56802 13.9413 4.94935 14.0906 4.28802 14.432C3.64802 14.752 3.08268 15.1786 2.59202 15.712ZM11.424 20.416C11.0613 20.032 10.8053 19.552 10.656 18.976C10.528 18.3786 10.5707 17.8453 10.784 17.376C10.9973 16.928 11.3707 16.5653 11.904 16.288C12.4587 16.0106 12.992 15.8933 13.504 15.936C13.0133 16.0853 12.5973 16.3306 12.256 16.672C11.9147 16.992 11.6587 17.344 11.488 17.728C11.3173 18.0906 11.2107 18.5173 11.168 19.008C11.1253 19.4773 11.2107 19.9466 11.424 20.416ZM20.832 16.064C21.216 16.256 21.5573 16.5653 21.856 16.992C22.1547 17.3973 22.2933 17.8133 22.272 18.24C22.2294 18.6666 22.0267 19.0613 21.664 19.424C21.3013 19.7866 20.9067 20.0213 20.48 20.128C20.8427 19.8933 21.088 19.5946 21.216 19.232C21.3653 18.8693 21.4613 18.5173 21.504 18.176C21.5253 17.8346 21.4933 17.472 21.408 17.088C21.3227 16.704 21.1307 16.3626 20.832 16.064ZM23.232 16.32C23.8933 16.7893 24.3413 17.44 24.576 18.272C24.832 19.0826 24.864 19.8826 24.672 20.672C24.4587 21.44 24.0427 22.1333 23.424 22.752C22.8267 23.3493 22.1227 23.6906 21.312 23.776C22.0374 23.4346 22.6774 22.976 23.232 22.4C23.808 21.824 24.1813 21.216 24.352 20.576C24.5227 19.9573 24.4907 19.264 24.256 18.496C24.0427 17.7066 23.7013 16.9813 23.232 16.32ZM1.24802 18.976C1.31202 18.5706 1.49335 18.1653 1.79202 17.76C2.09068 17.3546 2.44268 17.0986 2.84802 16.992C3.27468 16.9066 3.70135 16.9813 4.12802 17.216C4.57602 17.4506 4.91735 17.7493 5.15202 18.112C4.81068 17.856 4.44802 17.7173 4.06402 17.696C3.70135 17.6533 3.36002 17.6746 3.04002 17.76C2.69868 17.824 2.35735 17.952 2.01602 18.144C1.69602 18.336 1.44002 18.6133 1.24802 18.976ZM5.66402 18.112C6.06935 17.6853 6.60268 17.3973 7.26402 17.248C7.94668 17.0773 8.56535 17.1093 9.12002 17.344C9.67468 17.5786 10.112 18.0053 10.432 18.624C10.7733 19.2213 10.9227 19.8186 10.88 20.416C10.7093 19.84 10.432 19.3493 10.048 18.944C9.66402 18.5386 9.24802 18.24 8.80002 18.048C8.37335 17.856 7.87202 17.76 7.29602 17.76C6.74135 17.7386 6.19735 17.856 5.66402 18.112ZM5.05602 24.32C4.43735 24.512 3.77602 24.512 3.07202 24.32C2.36802 24.128 1.82402 23.776 1.44002 23.264C1.05602 22.752 0.853349 22.1333 0.832016 21.408C0.832016 20.6613 1.00268 20.0213 1.34402 19.488C1.19468 20.1066 1.19468 20.7146 1.34402 21.312C1.49335 21.888 1.72802 22.3786 2.04802 22.784C2.36802 23.1893 2.78402 23.5413 3.29602 23.84C3.82935 24.1386 4.41602 24.2986 5.05602 24.32ZM20.32 20.608C20.576 21.056 20.6933 21.5786 20.672 22.176C20.6507 22.752 20.48 23.232 20.16 23.616C19.8187 24 19.36 24.2453 18.784 24.352C18.208 24.4586 17.6854 24.4266 17.216 24.256C17.7067 24.256 18.1547 24.1493 18.56 23.936C18.9653 23.7013 19.296 23.4346 19.552 23.136C19.8293 22.816 20.0427 22.4426 20.192 22.016C20.3627 21.5893 20.4054 21.12 20.32 20.608ZM16.768 24.512C16.704 24.9813 16.5013 25.44 16.16 25.888C15.84 26.3573 15.4453 26.656 14.976 26.784C14.5067 26.912 14.0053 26.848 13.472 26.592C12.96 26.3573 12.5653 26.0373 12.288 25.632C12.6933 25.9306 13.1093 26.0906 13.536 26.112C13.984 26.1546 14.4 26.1333 14.784 26.048C15.1467 25.9413 15.5093 25.7706 15.872 25.536C16.256 25.28 16.5547 24.9386 16.768 24.512ZM11.776 25.664C11.4347 26.24 10.9227 26.6986 10.24 27.04C9.57868 27.3813 8.91735 27.4986 8.25602 27.392C7.59468 27.264 6.99735 26.9226 6.46402 26.368C5.95202 25.8133 5.63202 25.216 5.50402 24.576C5.84535 25.152 6.27202 25.6106 6.78402 25.952C7.31735 26.3146 7.85068 26.5386 8.38402 26.624C8.91735 26.7093 9.48268 26.6773 10.08 26.528C10.6987 26.3786 11.264 26.0906 11.776 25.664ZM9.44002 28.032C8.88535 28.6506 8.17068 29.0346 7.29602 29.184C6.42135 29.3333 5.60002 29.2586 4.83202 28.96C4.04268 28.6613 3.37068 28.16 2.81602 27.456C2.28268 26.752 2.02668 25.984 2.04802 25.152C2.30402 25.9413 2.68802 26.656 3.20002 27.296C3.73335 27.9573 4.30935 28.416 4.92802 28.672C5.54668 28.9066 6.27202 28.96 7.10402 28.832C7.93602 28.704 8.71468 28.4373 9.44002 28.032ZM36.9968 7.58396C37.5301 7.19996 38.1488 7.03996 38.8528 7.10396C39.5781 7.14662 40.2074 7.35996 40.7408 7.74396C41.2954 8.12796 41.7008 8.65062 41.9568 9.31196C42.2341 9.97329 42.2874 10.624 42.1168 11.264C42.0741 10.6026 41.9141 9.97329 41.6368 9.37596C41.3594 8.77862 40.9968 8.31996 40.5488 7.99996C40.1221 7.70129 39.5781 7.51996 38.9168 7.45596C38.2768 7.37062 37.6368 7.41329 36.9968 7.58396ZM32.2608 9.37596C32.5808 8.88529 33.0501 8.49062 33.6688 8.19196C34.2874 7.89329 34.8954 7.79729 35.4928 7.90396C36.0688 8.03196 36.5808 8.36262 37.0288 8.89596C37.4981 9.40796 37.7754 9.96262 37.8608 10.56C37.5621 10.0266 37.1781 9.59996 36.7088 9.27996C36.2608 8.95996 35.8021 8.75729 35.3328 8.67196C34.8634 8.56529 34.3514 8.56529 33.7968 8.67196C33.2421 8.77862 32.7301 9.01329 32.2608 9.37596ZM27.6208 10.688C27.6421 10.24 27.8021 9.79196 28.1008 9.34396C28.3994 8.87462 28.7621 8.57596 29.1888 8.44796C29.6368 8.31996 30.1061 8.36262 30.5968 8.57596C31.0874 8.76796 31.4714 9.04529 31.7488 9.40796C31.3648 9.17329 30.9594 9.05596 30.5328 9.05596C30.1274 9.03462 29.7541 9.07729 29.4128 9.18396C29.0714 9.29062 28.7301 9.46129 28.3888 9.69596C28.0474 9.93062 27.7914 10.2613 27.6208 10.688ZM21.8608 17.312C21.2421 16.7786 20.8581 16.0746 20.7088 15.2C20.5594 14.3253 20.6341 13.504 20.9328 12.736C21.2314 11.9466 21.7328 11.2853 22.4368 10.752C23.1194 10.1973 23.8661 9.93062 24.6768 9.95196C23.9088 10.2293 23.2048 10.624 22.5648 11.136C21.9034 11.648 21.4554 12.2133 21.2208 12.832C20.9861 13.4506 20.9328 14.176 21.0608 15.008C21.1888 15.8186 21.4554 16.5866 21.8608 17.312ZM38.2768 10.816C38.7461 10.6666 39.2581 10.6666 39.8128 10.816C40.3888 10.9653 40.8261 11.232 41.1248 11.616C41.4021 12 41.5301 12.4906 41.5088 13.088C41.4874 13.664 41.3488 14.1546 41.0928 14.56C41.1994 14.0906 41.1888 13.6426 41.0608 13.216C40.9328 12.768 40.7408 12.384 40.4848 12.064C40.2501 11.7653 39.9408 11.488 39.5568 11.232C39.1941 10.976 38.7674 10.8373 38.2768 10.816ZM24.4848 15.328C24.1434 14.9013 23.9408 14.3786 23.8768 13.76C23.8128 13.12 23.9194 12.576 24.1968 12.128C24.4954 11.68 24.9328 11.3493 25.5088 11.136C26.1061 10.9013 26.6714 10.848 27.2048 10.976C26.6714 11.04 26.2021 11.232 25.7968 11.552C25.3914 11.8506 25.0821 12.1813 24.8688 12.544C24.6341 12.9066 24.4634 13.3333 24.3568 13.824C24.2714 14.3146 24.3141 14.816 24.4848 15.328ZM31.1408 15.264C31.1834 15.0506 31.2688 14.8266 31.3968 14.592C31.3328 14.5066 31.2794 14.4213 31.2368 14.336C31.3008 14.4 31.3648 14.464 31.4288 14.528C31.5781 14.272 31.7594 14.0586 31.9728 13.888C32.1861 13.696 32.4101 13.5893 32.6448 13.568C32.9434 13.504 33.2528 13.5573 33.5728 13.728C33.8928 13.8986 34.1594 14.1013 34.3728 14.336C34.4154 14.2933 34.4581 14.24 34.5008 14.176C34.4794 14.2613 34.4581 14.336 34.4368 14.4C34.5008 14.5066 34.5648 14.6026 34.6288 14.688C34.5434 14.624 34.4581 14.5706 34.3728 14.528C34.2234 14.8053 34.0208 15.0613 33.7648 15.296C33.5088 15.5093 33.2314 15.616 32.9328 15.616C32.6768 15.6373 32.4208 15.5733 32.1648 15.424C31.9088 15.2533 31.6954 15.0506 31.5248 14.816C31.3754 14.944 31.2474 15.0933 31.1408 15.264ZM32.7728 14.304C32.6021 14.3466 32.4208 14.4 32.2288 14.464C32.0581 14.5066 31.8874 14.5813 31.7168 14.688C31.9088 14.7733 32.1008 14.8266 32.2928 14.848C32.5061 14.8693 32.7088 14.8693 32.9008 14.848C33.1354 14.848 33.3701 14.8266 33.6048 14.784C33.8394 14.72 34.0528 14.6133 34.2448 14.464C34.0101 14.336 33.7648 14.272 33.5088 14.272C33.2528 14.272 33.0074 14.2826 32.7728 14.304ZM41.2208 15.04C41.5408 15.36 41.7754 15.776 41.9248 16.288C42.0741 16.8 42.0634 17.2586 41.8928 17.664C41.7008 18.0693 41.3594 18.3893 40.8688 18.624C40.3994 18.8586 39.9408 18.9653 39.4928 18.944C39.9194 18.816 40.2714 18.6026 40.5488 18.304C40.8261 18.0053 41.0394 17.696 41.1888 17.376C41.3381 17.0346 41.4341 16.6613 41.4768 16.256C41.5194 15.8506 41.4341 15.4453 41.2208 15.04ZM25.1248 21.824C24.5061 21.6746 23.9408 21.344 23.4288 20.832C22.9381 20.2986 22.6501 19.712 22.5648 19.072C22.5008 18.4533 22.6501 17.8346 23.0128 17.216C23.3754 16.576 23.8341 16.1173 24.3888 15.84C23.9621 16.288 23.6634 16.8 23.4928 17.376C23.3221 17.952 23.2688 18.4853 23.3328 18.976C23.3968 19.488 23.5781 20 23.8768 20.512C24.1754 21.024 24.5914 21.4613 25.1248 21.824ZM24.1968 24.736C23.5141 24.7573 22.8848 24.544 22.3088 24.096C21.7328 23.648 21.3274 23.104 21.0928 22.464C20.8581 21.8453 20.8048 21.184 20.9328 20.48C21.0608 19.7546 21.3808 19.168 21.8928 18.72C21.5728 19.3173 21.3594 19.9466 21.2528 20.608C21.1461 21.2693 21.1888 21.856 21.3808 22.368C21.5728 22.88 21.9354 23.3493 22.4688 23.776C22.9808 24.2026 23.5568 24.5226 24.1968 24.736ZM31.7808 21.664C31.8021 21.5573 31.8341 21.4613 31.8768 21.376C31.7274 21.3546 31.5888 21.312 31.4608 21.248C31.6314 21.2693 31.7914 21.248 31.9408 21.184C32.2608 20.4373 32.7621 19.9146 33.4448 19.616C33.5301 19.4026 33.5621 19.1786 33.5408 18.944C33.6261 19.1146 33.6901 19.3066 33.7328 19.52C33.8181 19.4986 33.9141 19.4773 34.0208 19.456C34.1061 19.456 34.1914 19.456 34.2768 19.456C34.1701 19.2853 34.0848 19.1146 34.0208 18.944C34.1914 19.1573 34.3941 19.328 34.6288 19.456C35.0341 19.5413 35.4288 19.712 35.8128 19.968C36.0474 20.0106 36.2821 20.032 36.5168 20.032C36.9221 20.032 37.3488 19.9573 37.7968 19.808C38.2661 19.6373 38.6608 19.3493 38.9808 18.944C38.8101 19.4133 38.5008 19.84 38.0528 20.224C37.6048 20.5866 37.1354 20.7786 36.6448 20.8C36.6661 20.864 36.6981 20.928 36.7408 20.992C36.6768 20.928 36.6021 20.864 36.5168 20.8C35.9834 20.8 35.4714 20.608 34.9808 20.224C34.6821 20.1813 34.3941 20.1813 34.1168 20.224C33.9888 20.2453 33.8714 20.2666 33.7648 20.288C33.7221 20.5866 33.6261 20.8106 33.4768 20.96C33.3061 21.152 33.0821 21.28 32.8048 21.344C32.5274 21.408 32.2501 21.4186 31.9728 21.376C31.9088 21.4613 31.8448 21.5573 31.7808 21.664ZM37.2528 20.992C37.5301 20.736 37.8928 20.544 38.3408 20.416C38.8101 20.288 39.2154 20.3093 39.5568 20.48C39.8981 20.6506 40.1541 20.96 40.3248 21.408C40.4954 21.8346 40.5594 22.24 40.5168 22.624C40.4314 22.24 40.2608 21.9413 40.0048 21.728C39.7488 21.4933 39.4821 21.312 39.2048 21.184C38.9274 21.0346 38.6181 20.928 38.2768 20.864C37.9354 20.8 37.5941 20.8426 37.2528 20.992ZM29.8608 25.376C29.3914 25.7173 28.8261 25.8986 28.1648 25.92C27.5034 25.9626 26.9381 25.824 26.4688 25.504C25.9994 25.1626 25.6581 24.6826 25.4448 24.064C25.2314 23.424 25.1994 22.8266 25.3488 22.272C25.4128 22.848 25.5941 23.36 25.8928 23.808C26.1914 24.256 26.5221 24.608 26.8848 24.864C27.2688 25.12 27.7168 25.312 28.2288 25.44C28.7621 25.5466 29.3061 25.5253 29.8608 25.376ZM40.1968 23.04C40.2821 23.5093 40.2181 24.0106 40.0048 24.544C39.8128 25.056 39.5141 25.44 39.1088 25.696C38.6821 25.9306 38.1914 25.9946 37.6368 25.888C37.0821 25.8026 36.6234 25.6106 36.2608 25.312C36.7088 25.4613 37.1461 25.504 37.5728 25.44C37.9994 25.3546 38.3834 25.216 38.7248 25.024C39.0448 24.832 39.3434 24.576 39.6208 24.256C39.9194 23.9146 40.1114 23.5093 40.1968 23.04ZM42.7248 23.712C42.8954 24.48 42.7781 25.248 42.3728 26.016C41.9888 26.784 41.4554 27.3813 40.7728 27.808C40.0901 28.2133 39.3221 28.4266 38.4688 28.448C37.6154 28.4693 36.8688 28.224 36.2288 27.712C36.9968 27.968 37.7754 28.0853 38.5648 28.064C39.3754 28.0426 40.0581 27.8613 40.6128 27.52C41.1461 27.1786 41.6048 26.656 41.9888 25.952C42.3728 25.248 42.6181 24.5013 42.7248 23.712ZM35.7488 25.408C35.5354 25.984 35.1408 26.4853 34.5648 26.912C34.0101 27.3386 33.4234 27.552 32.8048 27.552C32.1861 27.5306 31.5888 27.3066 31.0128 26.88C30.4581 26.4533 30.0741 25.952 29.8608 25.376C30.2661 25.8453 30.7354 26.1866 31.2688 26.4C31.8021 26.6346 32.3141 26.7626 32.8048 26.784C33.2954 26.784 33.8074 26.6666 34.3408 26.432C34.8741 26.2186 35.3434 25.8773 35.7488 25.408ZM53.7023 1.31196C54.4063 1.22662 55.0783 1.38662 55.7183 1.79196C56.3583 2.19729 56.8276 2.70929 57.1263 3.32796C57.4463 3.96796 57.5743 4.66129 57.5103 5.40796C57.4463 6.15462 57.1689 6.78396 56.6783 7.29596C56.9556 6.65596 57.1156 5.98396 57.1583 5.27996C57.2009 4.57596 57.1049 3.97862 56.8703 3.48796C56.6143 2.97596 56.1876 2.52796 55.5903 2.14396C55.0143 1.73862 54.3849 1.46129 53.7023 1.31196ZM48.5823 3.61596C48.9023 3.18929 49.3503 2.86929 49.9263 2.65596C50.5023 2.42129 51.0463 2.38929 51.5583 2.55996C52.0703 2.70929 52.4969 3.05062 52.8383 3.58396C53.2009 4.09596 53.3929 4.61862 53.4143 5.15196C53.2009 4.66129 52.9023 4.26662 52.5183 3.96796C52.1343 3.64796 51.7396 3.42396 51.3343 3.29596C50.9289 3.16796 50.4809 3.12529 49.9903 3.16796C49.4996 3.18929 49.0303 3.33862 48.5823 3.61596ZM47.0463 7.93596C46.6623 7.67996 46.3423 7.30662 46.0863 6.81596C45.8516 6.30396 45.7876 5.82396 45.8943 5.37596C46.0009 4.92796 46.2676 4.54396 46.6943 4.22396C47.1423 3.88262 47.6009 3.67996 48.0703 3.61596C47.6436 3.82929 47.3129 4.11729 47.0783 4.47996C46.8649 4.84262 46.7156 5.20529 46.6303 5.56796C46.5449 5.90929 46.5236 6.29329 46.5663 6.71996C46.6089 7.14662 46.7689 7.55196 47.0463 7.93596ZM41.5103 8.89596C41.3609 8.49062 41.3609 8.06396 41.5103 7.61596C41.6383 7.16796 41.8623 6.80529 42.1823 6.52796C42.5236 6.25062 42.9289 6.09062 43.3983 6.04796C43.8676 5.98396 44.2836 6.05862 44.6463 6.27196C43.7289 6.12262 42.9823 6.29329 42.4063 6.78396C41.8089 7.27462 41.5103 7.97862 41.5103 8.89596ZM53.4143 8.06396C53.7343 7.67996 54.1716 7.40262 54.7263 7.23196C55.2809 7.03996 55.7823 7.02929 56.2303 7.19996C56.6996 7.37062 57.0729 7.71196 57.3503 8.22396C57.6489 8.71462 57.7983 9.20529 57.7983 9.69596C57.6276 9.22662 57.3716 8.85329 57.0303 8.57596C56.6889 8.27729 56.3369 8.05329 55.9743 7.90396C55.5903 7.77596 55.1743 7.71196 54.7263 7.71196C54.2783 7.69062 53.8409 7.80796 53.4143 8.06396ZM43.8783 9.72796C43.8783 9.36529 43.9743 8.98129 44.1663 8.57596C44.3583 8.17062 44.6143 7.90396 44.9343 7.77596C45.2756 7.64796 45.6489 7.65862 46.0543 7.80796C46.4809 7.95729 46.8116 8.15996 47.0463 8.41596C46.7263 8.26662 46.4063 8.21329 46.0863 8.25596C45.7876 8.29862 45.4996 8.37329 45.2223 8.47996C44.9663 8.58662 44.6996 8.73596 44.4223 8.92796C44.1663 9.11996 43.9849 9.38662 43.8783 9.72796ZM41.9263 15.776C41.2436 15.5626 40.6783 15.136 40.2303 14.496C39.7823 13.856 39.5369 13.1733 39.4943 12.448C39.4516 11.744 39.6116 11.0506 39.9743 10.368C40.3369 9.68529 40.8489 9.19462 41.5103 8.89596C40.9983 9.38662 40.5823 9.96262 40.2623 10.624C39.9423 11.264 39.7929 11.872 39.8143 12.448C39.8569 13.024 40.0809 13.6106 40.4863 14.208C40.8703 14.8053 41.3503 15.328 41.9263 15.776ZM58.2783 9.91996C58.6836 10.1546 59.0249 10.5173 59.3023 11.008C59.5796 11.4773 59.6863 11.9466 59.6223 12.416C59.5369 12.8853 59.2809 13.3013 58.8543 13.664C58.4489 14.0266 58.0116 14.2506 57.5423 14.336C57.9476 14.1013 58.2463 13.792 58.4383 13.408C58.6516 13.024 58.7903 12.6506 58.8543 12.288C58.9183 11.9253 58.9076 11.5306 58.8223 11.104C58.7583 10.6773 58.5769 10.2826 58.2783 9.91996ZM44.0383 14.336C43.6116 14.2293 43.2063 13.9946 42.8223 13.632C42.4596 13.248 42.2569 12.8426 42.2143 12.416C42.1716 11.9893 42.3103 11.5626 42.6303 11.136C42.9289 10.7093 43.2703 10.4 43.6543 10.208C43.3556 10.5066 43.1636 10.8586 43.0783 11.264C42.9929 11.648 42.9609 12.0106 42.9823 12.352C43.0249 12.6933 43.1209 13.0453 43.2703 13.408C43.4196 13.7706 43.6756 14.08 44.0383 14.336ZM47.0463 17.216C46.6623 17.3653 46.2249 17.408 45.7343 17.344C45.2649 17.28 44.9023 17.088 44.6463 16.768C44.3689 16.4693 44.2303 16.0746 44.2303 15.584C44.2516 15.0933 44.3583 14.6773 44.5503 14.336C44.4863 14.7413 44.5289 15.104 44.6783 15.424C44.8276 15.744 45.0089 16.032 45.2223 16.288C45.4356 16.5226 45.6916 16.736 45.9903 16.928C46.2889 17.12 46.6409 17.216 47.0463 17.216ZM57.0623 14.336C57.1049 14.7626 57.0196 15.2106 56.8063 15.68C56.5929 16.1493 56.2943 16.4693 55.9103 16.64C55.5476 16.832 55.1103 16.864 54.5983 16.736C54.1076 16.608 53.7129 16.3946 53.4143 16.096C53.7983 16.2666 54.1823 16.32 54.5663 16.256C54.9503 16.192 55.2916 16.096 55.5903 15.968C55.8889 15.8186 56.1769 15.616 56.4543 15.36C56.7529 15.0826 56.9556 14.7413 57.0623 14.336ZM58.8223 16.576C59.0996 16.5333 59.3769 16.576 59.6543 16.704C59.9316 16.8106 60.1343 16.9813 60.2623 17.216C60.4116 17.4506 60.4649 17.728 60.4223 18.048C60.3796 18.3466 60.2729 18.592 60.1023 18.784C60.2089 18.5493 60.2409 18.304 60.1983 18.048C60.1769 17.792 60.1129 17.568 60.0063 17.376C59.8996 17.2053 59.7396 17.0453 59.5263 16.896C59.3343 16.7253 59.0996 16.6186 58.8223 16.576ZM53.4143 16.576C53.8196 16.5973 54.2356 16.736 54.6623 16.992C55.0889 17.248 55.3663 17.5786 55.4943 17.984C55.6223 18.368 55.5903 18.7946 55.3983 19.264C55.2063 19.712 54.9503 20.064 54.6303 20.32C54.8436 19.9786 54.9396 19.6266 54.9183 19.264C54.9183 18.88 54.8756 18.528 54.7903 18.208C54.6836 17.888 54.5236 17.5786 54.3103 17.28C54.0969 16.9813 53.7983 16.7466 53.4143 16.576ZM47.5583 22.016C47.1316 21.9093 46.7156 21.6746 46.3103 21.312C45.9263 20.928 45.7023 20.512 45.6383 20.064C45.5743 19.616 45.6916 19.168 45.9903 18.72C46.2889 18.2506 46.6409 17.92 47.0463 17.728C46.7263 18.048 46.5236 18.4106 46.4383 18.816C46.3743 19.2213 46.3636 19.6053 46.4063 19.968C46.4489 20.3306 46.5556 20.704 46.7263 21.088C46.9183 21.4506 47.1956 21.76 47.5583 22.016ZM55.1423 20.416C55.3556 20.1173 55.6756 19.872 56.1023 19.68C56.5289 19.4666 56.9129 19.4133 57.2543 19.52C57.6169 19.6266 57.9156 19.8826 58.1503 20.288C58.4063 20.672 58.5449 21.056 58.5663 21.44C58.4169 21.0986 58.1929 20.8426 57.8943 20.672C57.6169 20.48 57.3396 20.3413 57.0623 20.256C56.7636 20.1706 56.4436 20.128 56.1023 20.128C55.7823 20.1066 55.4623 20.2026 55.1423 20.416ZM58.5663 21.952C58.8863 22.144 59.1529 22.4426 59.3663 22.848C59.6009 23.232 59.6756 23.6053 59.5903 23.968C59.5049 24.3306 59.2703 24.6506 58.8863 24.928C58.5236 25.184 58.1609 25.3333 57.7983 25.376C58.1396 25.2053 58.3849 24.9706 58.5343 24.672C58.6836 24.3733 58.7903 24.0853 58.8543 23.808C58.9183 23.5093 58.9396 23.2 58.9183 22.88C58.9183 22.5386 58.8009 22.2293 58.5663 21.952ZM50.7583 24.864C50.4169 25.056 50.0009 25.1626 49.5103 25.184C49.0196 25.2053 48.6249 25.0986 48.3263 24.864C48.0063 24.608 47.8036 24.2453 47.7183 23.776C47.6329 23.2853 47.6543 22.8586 47.7823 22.496C47.8036 22.88 47.9103 23.2213 48.1023 23.52C48.3156 23.8186 48.5503 24.064 48.8063 24.256C49.0409 24.448 49.3183 24.6186 49.6383 24.768C49.9796 24.896 50.3529 24.928 50.7583 24.864ZM57.3183 25.376C57.0623 25.952 56.6249 26.4426 56.0063 26.848C55.4089 27.2533 54.7903 27.4346 54.1503 27.392C53.5103 27.3493 52.9129 27.0933 52.3583 26.624C51.8036 26.1546 51.4303 25.6106 51.2383 24.992C51.6223 25.504 52.0809 25.8986 52.6143 26.176C53.1476 26.4533 53.6703 26.6026 54.1823 26.624C54.6943 26.6453 55.2276 26.56 55.7823 26.368C56.3583 26.176 56.8703 25.8453 57.3183 25.376ZM56.0703 27.776C55.5583 28.544 54.8329 29.0773 53.8943 29.376C52.9769 29.6746 52.0703 29.7173 51.1743 29.504C50.2783 29.2906 49.4676 28.8426 48.7423 28.16C48.0383 27.4986 47.6329 26.7093 47.5263 25.792C47.9529 26.624 48.4969 27.36 49.1583 28C49.8196 28.64 50.5129 29.0346 51.2383 29.184C51.9636 29.3546 52.7636 29.3013 53.6383 29.024C54.5129 28.7466 55.3236 28.3306 56.0703 27.776ZM73.8055 1.50396C74.4242 0.970623 75.1709 0.682623 76.0455 0.639956C76.9202 0.575956 77.7202 0.746623 78.4455 1.15196C79.1708 1.53596 79.7575 2.10129 80.2055 2.84796C80.6749 3.59462 80.8562 4.37329 80.7495 5.18396C80.5789 4.39462 80.2695 3.64796 79.8215 2.94396C79.3948 2.23996 78.8935 1.72796 78.3175 1.40796C77.7202 1.10929 77.0055 0.981289 76.1735 1.02396C75.3629 1.04529 74.5735 1.20529 73.8055 1.50396ZM67.6615 3.93596C67.8962 3.31729 68.3122 2.78396 68.9095 2.33596C69.5282 1.88796 70.1682 1.67462 70.8295 1.69596C71.4908 1.69596 72.1202 1.91996 72.7175 2.36796C73.3148 2.81596 73.7202 3.34929 73.9335 3.96796C73.5282 3.45596 73.0375 3.08262 72.4615 2.84796C71.8855 2.59196 71.3415 2.46396 70.8295 2.46396C70.2962 2.44262 69.7415 2.55996 69.1655 2.81596C68.5895 3.05062 68.0882 3.42396 67.6615 3.93596ZM74.4455 4.09596C74.8935 3.75462 75.4375 3.54129 76.0775 3.45596C76.7175 3.37062 77.2828 3.47729 77.7735 3.77596C78.2428 4.07462 78.5948 4.53329 78.8295 5.15196C79.0642 5.74929 79.1282 6.31462 79.0215 6.84796C78.9362 6.29329 78.7335 5.81329 78.4135 5.40796C78.0935 5.00262 77.7415 4.68262 77.3575 4.44796C76.9735 4.21329 76.5255 4.05329 76.0135 3.96796C75.5015 3.88262 74.9789 3.92529 74.4455 4.09596ZM62.3175 7.35996C62.1682 6.76262 62.2002 6.13329 62.4135 5.47196C62.6482 4.78929 63.0215 4.27729 63.5335 3.93596C64.0455 3.57329 64.6535 3.41329 65.3575 3.45596C66.0615 3.49862 66.6695 3.69062 67.1815 4.03196C66.5842 3.88262 65.9975 3.86129 65.4215 3.96796C64.8668 4.07462 64.3868 4.26662 63.9815 4.54396C63.5548 4.82129 63.1815 5.20529 62.8615 5.69596C62.5628 6.18662 62.3815 6.74129 62.3175 7.35996ZM59.0855 11.264C58.5095 10.7946 58.1468 10.1653 57.9975 9.37596C57.8268 8.56529 57.8695 7.80796 58.1255 7.10396C58.3815 6.37862 58.8295 5.75996 59.4695 5.24796C60.0882 4.73596 60.7815 4.47996 61.5495 4.47996C60.8242 4.75729 60.1735 5.14129 59.5975 5.63196C59.0215 6.10129 58.6268 6.62396 58.4135 7.19996C58.2215 7.77596 58.1895 8.43729 58.3175 9.18396C58.4455 9.93062 58.7015 10.624 59.0855 11.264ZM61.7735 12.512C61.3042 12.32 60.8988 11.9893 60.5575 11.52C60.2375 11.0293 60.0882 10.5386 60.1095 10.048C60.1522 9.55729 60.3655 9.09862 60.7495 8.67196C61.1548 8.22396 61.5922 7.93596 62.0615 7.80796C61.6562 8.10662 61.3575 8.46929 61.1655 8.89596C60.9948 9.30129 60.8988 9.70662 60.8775 10.112C60.8562 10.496 60.9095 10.912 61.0375 11.36C61.1655 11.7866 61.4108 12.1706 61.7735 12.512ZM68.9095 10.912L68.9735 10.816C68.8668 10.688 68.7815 10.56 68.7175 10.432C68.8242 10.5386 68.9415 10.624 69.0695 10.688C69.4748 10.2186 69.9975 9.86662 70.6375 9.63196C71.2988 9.39729 71.9282 9.35462 72.5255 9.50396C72.9948 9.63196 73.4322 9.87729 73.8375 10.24C73.7948 10.1546 73.7522 10.0693 73.7095 9.98396C74.0508 10.3893 74.4455 10.6773 74.8935 10.848C75.3415 11.0186 75.7788 11.104 76.2055 11.104C76.6322 11.104 77.0695 11.0186 77.5175 10.848C77.9655 10.6773 78.3602 10.3893 78.7015 9.98396C78.5309 10.4746 78.2002 10.912 77.7095 11.296C77.2402 11.68 76.7388 11.872 76.2055 11.872C75.6295 11.872 75.0855 11.6373 74.5735 11.168C74.8082 11.616 74.9468 12.064 74.9895 12.512C74.7762 12.0426 74.4882 11.6373 74.1255 11.296C73.7628 10.9333 73.3788 10.6666 72.9735 10.496C72.7815 10.8373 72.5148 11.1466 72.1735 11.424C71.8535 11.68 71.5122 11.8293 71.1495 11.872C70.7655 11.936 70.3708 11.8613 69.9655 11.648C69.5815 11.4346 69.2615 11.168 69.0055 10.848C68.9842 10.8693 68.9522 10.8906 68.9095 10.912ZM72.3335 10.24C71.8642 10.1333 71.3415 10.112 70.7655 10.176C70.2108 10.24 69.6775 10.432 69.1655 10.752C69.4642 10.944 69.7735 11.0613 70.0935 11.104C70.4348 11.1466 70.7548 11.1573 71.0535 11.136C71.3522 11.0933 71.6508 11.0186 71.9495 10.912C72.2482 10.784 72.5148 10.6133 72.7495 10.4C72.6215 10.336 72.4828 10.2826 72.3335 10.24ZM75.5015 12.608C75.7788 12.3093 76.1522 12.0853 76.6215 11.936C77.1122 11.7866 77.5602 11.7866 77.9655 11.936C78.3495 12.1066 78.6482 12.416 78.8615 12.864C79.0962 13.312 79.2028 13.7493 79.1815 14.176C79.0535 13.7706 78.8402 13.4506 78.5415 13.216C78.2642 12.96 77.9655 12.768 77.6455 12.64C77.3469 12.512 77.0055 12.4266 76.6215 12.384C76.2375 12.3413 75.8642 12.416 75.5015 12.608ZM60.6215 16.8C60.1308 16.7786 59.6828 16.5973 59.2775 16.256C58.8508 15.8933 58.5628 15.4773 58.4135 15.008C58.2642 14.5386 58.2642 14.048 58.4135 13.536C58.5628 13.0026 58.8295 12.5973 59.2135 12.32C58.9575 12.7253 58.7868 13.1626 58.7015 13.632C58.5948 14.1013 58.6055 14.528 58.7335 14.912C58.8402 15.296 59.0642 15.6586 59.4055 16C59.7468 16.3413 60.1522 16.608 60.6215 16.8ZM65.5495 16.128C65.1228 16.384 64.6108 16.5013 64.0135 16.48C63.4162 16.4586 62.9362 16.2773 62.5735 15.936C62.1895 15.616 61.9442 15.168 61.8375 14.592C61.7308 13.9946 61.7735 13.4613 61.9655 12.992C61.9442 13.504 62.0402 13.9626 62.2535 14.368C62.4882 14.7733 62.7548 15.104 63.0535 15.36C63.3735 15.616 63.7468 15.8293 64.1735 16C64.6002 16.1706 65.0588 16.2133 65.5495 16.128ZM79.5655 14.496C80.0989 14.5386 80.6215 14.7413 81.1335 15.104C81.6669 15.4666 82.0082 15.9146 82.1575 16.448C82.3282 16.9813 82.2962 17.5466 82.0615 18.144C81.8268 18.72 81.4855 19.168 81.0375 19.488C81.3362 19.04 81.5069 18.56 81.5495 18.048C81.5922 17.536 81.5495 17.0773 81.4215 16.672C81.2935 16.2453 81.0695 15.84 80.7495 15.456C80.4509 15.0506 80.0562 14.7306 79.5655 14.496ZM83.1495 15.936C83.7682 16.2346 84.2375 16.7146 84.5575 17.376C84.8989 18.016 85.0375 18.688 84.9735 19.392C84.9309 20.0746 84.6855 20.7146 84.2375 21.312C83.8109 21.888 83.2669 22.272 82.6055 22.464C83.1602 22.0586 83.6295 21.5786 84.0135 21.024C84.3975 20.448 84.6215 19.8933 84.6855 19.36C84.7282 18.8053 84.6002 18.2186 84.3015 17.6C84.0242 16.9813 83.6402 16.4266 83.1495 15.936ZM61.6455 19.136C61.8588 18.5386 62.2535 18.0266 62.8295 17.6C63.4055 17.1733 64.0135 16.9706 64.6535 16.992C65.0162 16.992 65.3788 17.0773 65.7415 17.248C66.1255 17.3973 66.4562 17.6106 66.7335 17.888C66.3495 17.3973 66.1148 16.8746 66.0295 16.32C66.3495 16.896 66.7548 17.3546 67.2455 17.696C67.7575 18.0373 68.2695 18.2613 68.7815 18.368C69.2295 18.1973 69.6348 18.176 69.9975 18.304C70.0615 18.3253 70.1255 18.3573 70.1895 18.4C70.5308 18.336 70.8615 18.24 71.1815 18.112C71.5015 17.9626 71.8108 17.7706 72.1095 17.536C72.0242 17.6853 71.9282 17.824 71.8215 17.952C72.0775 17.8026 72.3335 17.7173 72.5895 17.696C72.3335 17.824 72.1522 18.0053 72.0455 18.24C71.9602 18.4746 71.8855 18.6986 71.8215 18.912C71.7575 19.1466 71.7042 19.392 71.6615 19.648C71.6402 19.8826 71.7148 20.1173 71.8855 20.352C71.6508 20.2026 71.4375 19.968 71.2455 19.648C71.0535 19.3066 71.0002 18.9973 71.0855 18.72C71.1068 18.656 71.1282 18.592 71.1495 18.528C71.0215 18.6133 70.8722 18.6986 70.7015 18.784C71.1282 19.2533 71.3522 19.7973 71.3735 20.416C71.2455 20.0533 71.0428 19.776 70.7655 19.584C70.4882 19.3706 70.2002 19.2 69.9015 19.072C69.4535 19.1786 69.0268 19.2 68.6215 19.136C68.4508 19.0933 68.2802 19.0293 68.1095 18.944C67.9388 19.008 67.7788 19.0826 67.6295 19.168C67.7148 19.0613 67.8108 18.9653 67.9175 18.88C67.6402 18.7306 67.3842 18.5493 67.1495 18.336C67.3628 18.592 67.5228 18.8693 67.6295 19.168C67.2242 18.6986 66.7442 18.3466 66.1895 18.112C65.6562 17.8773 65.1442 17.76 64.6535 17.76C64.1415 17.7386 63.6082 17.8453 63.0535 18.08C62.5202 18.3146 62.0508 18.6666 61.6455 19.136ZM63.1175 23.552C62.6268 23.5946 62.1148 23.4773 61.5815 23.2C61.0482 22.9226 60.6748 22.5493 60.4615 22.08C60.2482 21.632 60.2162 21.12 60.3655 20.544C60.5148 19.968 60.7708 19.4986 61.1335 19.136C60.9202 19.584 60.8242 20.0426 60.8455 20.512C60.8882 20.9813 60.9948 21.408 61.1655 21.792C61.3362 22.1546 61.5815 22.5066 61.9015 22.848C62.2215 23.168 62.6268 23.4026 63.1175 23.552ZM80.9415 20C81.1975 20.3413 81.3575 20.768 81.4215 21.28C81.4855 21.792 81.4109 22.2186 81.1975 22.56C80.9628 22.9226 80.6002 23.1786 80.1095 23.328C79.6188 23.4773 79.1602 23.4986 78.7335 23.392C79.1602 23.3493 79.5228 23.2106 79.8215 22.976C80.1202 22.72 80.3548 22.4426 80.5255 22.144C80.7175 21.8666 80.8668 21.5466 80.9735 21.184C81.0802 20.8 81.0695 20.4053 80.9415 20ZM78.3175 23.712C78.3388 24.1173 78.2428 24.544 78.0295 24.992C77.8375 25.44 77.5495 25.7386 77.1655 25.888C76.8029 26.0586 76.3869 26.0693 75.9175 25.92C75.4482 25.7706 75.0748 25.5466 74.7975 25.248C75.1602 25.44 75.5229 25.5146 75.8855 25.472C76.2482 25.408 76.5788 25.312 76.8775 25.184C77.1762 25.056 77.4642 24.8746 77.7415 24.64C78.0188 24.4053 78.2108 24.096 78.3175 23.712ZM68.2375 25.504C67.9175 25.9093 67.4588 26.208 66.8615 26.4C66.2855 26.6133 65.7522 26.6346 65.2615 26.464C64.7708 26.272 64.3655 25.92 64.0455 25.408C63.7255 24.896 63.5548 24.3733 63.5335 23.84C63.7255 24.3306 64.0028 24.736 64.3655 25.056C64.7495 25.3546 65.1335 25.5786 65.5175 25.728C65.9228 25.856 66.3602 25.92 66.8295 25.92C67.3202 25.92 67.7895 25.7813 68.2375 25.504ZM74.2855 25.376C74.1148 25.9306 73.7628 26.4213 73.2295 26.848C72.7175 27.2746 72.1735 27.4986 71.5975 27.52C71.0215 27.5413 70.4562 27.3493 69.9015 26.944C69.3682 26.56 68.9842 26.1013 68.7495 25.568C69.1548 25.9946 69.6028 26.304 70.0935 26.496C70.6055 26.688 71.0962 26.7733 71.5655 26.752C72.0348 26.7306 72.5148 26.6026 73.0055 26.368C73.5175 26.1546 73.9442 25.824 74.2855 25.376ZM71.7255 28.096C71.2775 28.8426 70.6162 29.376 69.7415 29.696C68.8882 30.016 68.0348 30.1013 67.1815 29.952C66.3282 29.8026 65.5495 29.4186 64.8455 28.8C64.1415 28.2026 63.7148 27.4773 63.5655 26.624C64.0135 27.3706 64.5682 28.0213 65.2295 28.576C65.8908 29.152 66.5628 29.504 67.2455 29.632C67.9282 29.76 68.6748 29.6746 69.4855 29.376C70.3175 29.0773 71.0642 28.6506 71.7255 28.096ZM96.278 7.58396C96.8113 7.19996 97.43 7.03996 98.134 7.10396C98.8594 7.14662 99.4887 7.35996 100.022 7.74396C100.577 8.12796 100.982 8.65062 101.238 9.31196C101.515 9.97329 101.569 10.624 101.398 11.264C101.355 10.6026 101.195 9.97329 100.918 9.37596C100.641 8.77862 100.278 8.31996 99.83 7.99996C99.4033 7.70129 98.8593 7.51996 98.198 7.45596C97.558 7.37062 96.918 7.41329 96.278 7.58396ZM91.542 9.37596C91.862 8.88529 92.3313 8.49062 92.95 8.19196C93.5687 7.89329 94.1767 7.79729 94.774 7.90396C95.35 8.03196 95.862 8.36262 96.31 8.89596C96.7793 9.40796 97.0567 9.96262 97.142 10.56C96.8433 10.0266 96.4593 9.59996 95.99 9.27996C95.542 8.95996 95.0833 8.75729 94.614 8.67196C94.1447 8.56529 93.6327 8.56529 93.078 8.67196C92.5233 8.77862 92.0113 9.01329 91.542 9.37596ZM86.902 10.688C86.9233 10.24 87.0833 9.79196 87.382 9.34396C87.6807 8.87462 88.0433 8.57596 88.47 8.44796C88.918 8.31996 89.3873 8.36262 89.878 8.57596C90.3687 8.76796 90.7527 9.04529 91.03 9.40796C90.646 9.17329 90.2407 9.05596 89.814 9.05596C89.4087 9.03462 89.0353 9.07729 88.694 9.18396C88.3527 9.29062 88.0113 9.46129 87.67 9.69596C87.3287 9.93062 87.0727 10.2613 86.902 10.688ZM81.142 17.312C80.5233 16.7786 80.1393 16.0746 79.99 15.2C79.8407 14.3253 79.9153 13.504 80.214 12.736C80.5127 11.9466 81.014 11.2853 81.718 10.752C82.4007 10.1973 83.1473 9.93062 83.958 9.95196C83.19 10.2293 82.486 10.624 81.846 11.136C81.1847 11.648 80.7367 12.2133 80.502 12.832C80.2673 13.4506 80.214 14.176 80.342 15.008C80.47 15.8186 80.7367 16.5866 81.142 17.312ZM97.558 10.816C98.0273 10.6666 98.5393 10.6666 99.094 10.816C99.67 10.9653 100.107 11.232 100.406 11.616C100.683 12 100.811 12.4906 100.79 13.088C100.769 13.664 100.63 14.1546 100.374 14.56C100.481 14.0906 100.47 13.6426 100.342 13.216C100.214 12.768 100.022 12.384 99.766 12.064C99.5313 11.7653 99.222 11.488 98.838 11.232C98.4753 10.976 98.0487 10.8373 97.558 10.816ZM83.766 15.328C83.4247 14.9013 83.222 14.3786 83.158 13.76C83.094 13.12 83.2007 12.576 83.478 12.128C83.7767 11.68 84.214 11.3493 84.79 11.136C85.3873 10.9013 85.9527 10.848 86.486 10.976C85.9527 11.04 85.4833 11.232 85.078 11.552C84.6727 11.8506 84.3633 12.1813 84.15 12.544C83.9153 12.9066 83.7447 13.3333 83.638 13.824C83.5527 14.3146 83.5953 14.816 83.766 15.328ZM90.422 15.264C90.4647 15.0506 90.55 14.8266 90.678 14.592C90.614 14.5066 90.5607 14.4213 90.518 14.336C90.582 14.4 90.646 14.464 90.71 14.528C90.8593 14.272 91.0407 14.0586 91.254 13.888C91.4673 13.696 91.6913 13.5893 91.926 13.568C92.2247 13.504 92.534 13.5573 92.854 13.728C93.174 13.8986 93.4407 14.1013 93.654 14.336C93.6967 14.2933 93.7393 14.24 93.782 14.176C93.7607 14.2613 93.7393 14.336 93.718 14.4C93.782 14.5066 93.846 14.6026 93.91 14.688C93.8247 14.624 93.7393 14.5706 93.654 14.528C93.5047 14.8053 93.302 15.0613 93.046 15.296C92.79 15.5093 92.5127 15.616 92.214 15.616C91.958 15.6373 91.702 15.5733 91.446 15.424C91.19 15.2533 90.9767 15.0506 90.806 14.816C90.6567 14.944 90.5287 15.0933 90.422 15.264ZM92.054 14.304C91.8833 14.3466 91.702 14.4 91.51 14.464C91.3393 14.5066 91.1687 14.5813 90.998 14.688C91.19 14.7733 91.382 14.8266 91.574 14.848C91.7873 14.8693 91.99 14.8693 92.182 14.848C92.4167 14.848 92.6513 14.8266 92.886 14.784C93.1207 14.72 93.334 14.6133 93.526 14.464C93.2913 14.336 93.046 14.272 92.79 14.272C92.534 14.272 92.2887 14.2826 92.054 14.304ZM100.502 15.04C100.822 15.36 101.057 15.776 101.206 16.288C101.355 16.8 101.345 17.2586 101.174 17.664C100.982 18.0693 100.641 18.3893 100.15 18.624C99.6807 18.8586 99.222 18.9653 98.774 18.944C99.2007 18.816 99.5527 18.6026 99.83 18.304C100.107 18.0053 100.321 17.696 100.47 17.376C100.619 17.0346 100.715 16.6613 100.758 16.256C100.801 15.8506 100.715 15.4453 100.502 15.04ZM84.406 21.824C83.7873 21.6746 83.222 21.344 82.71 20.832C82.2193 20.2986 81.9313 19.712 81.846 19.072C81.782 18.4533 81.9313 17.8346 82.294 17.216C82.6567 16.576 83.1153 16.1173 83.67 15.84C83.2433 16.288 82.9447 16.8 82.774 17.376C82.6033 17.952 82.55 18.4853 82.614 18.976C82.678 19.488 82.8593 20 83.158 20.512C83.4567 21.024 83.8727 21.4613 84.406 21.824ZM83.478 24.736C82.7953 24.7573 82.166 24.544 81.59 24.096C81.014 23.648 80.6087 23.104 80.374 22.464C80.1393 21.8453 80.086 21.184 80.214 20.48C80.342 19.7546 80.662 19.168 81.174 18.72C80.854 19.3173 80.6407 19.9466 80.534 20.608C80.4273 21.2693 80.47 21.856 80.662 22.368C80.854 22.88 81.2167 23.3493 81.75 23.776C82.262 24.2026 82.838 24.5226 83.478 24.736ZM91.062 21.664C91.0833 21.5573 91.1153 21.4613 91.158 21.376C91.0087 21.3546 90.87 21.312 90.742 21.248C90.9127 21.2693 91.0727 21.248 91.222 21.184C91.542 20.4373 92.0433 19.9146 92.726 19.616C92.8113 19.4026 92.8433 19.1786 92.822 18.944C92.9073 19.1146 92.9713 19.3066 93.014 19.52C93.0993 19.4986 93.1953 19.4773 93.302 19.456C93.3873 19.456 93.4727 19.456 93.558 19.456C93.4513 19.2853 93.366 19.1146 93.302 18.944C93.4727 19.1573 93.6753 19.328 93.91 19.456C94.3153 19.5413 94.71 19.712 95.094 19.968C95.3287 20.0106 95.5633 20.032 95.798 20.032C96.2033 20.032 96.63 19.9573 97.078 19.808C97.5473 19.6373 97.942 19.3493 98.262 18.944C98.0913 19.4133 97.782 19.84 97.334 20.224C96.886 20.5866 96.4167 20.7786 95.926 20.8C95.9473 20.864 95.9793 20.928 96.022 20.992C95.958 20.928 95.8833 20.864 95.798 20.8C95.2647 20.8 94.7527 20.608 94.262 20.224C93.9633 20.1813 93.6753 20.1813 93.398 20.224C93.27 20.2453 93.1527 20.2666 93.046 20.288C93.0033 20.5866 92.9073 20.8106 92.758 20.96C92.5873 21.152 92.3633 21.28 92.086 21.344C91.8087 21.408 91.5313 21.4186 91.254 21.376C91.19 21.4613 91.126 21.5573 91.062 21.664ZM96.534 20.992C96.8113 20.736 97.174 20.544 97.622 20.416C98.0913 20.288 98.4967 20.3093 98.838 20.48C99.1793 20.6506 99.4353 20.96 99.606 21.408C99.7767 21.8346 99.8407 22.24 99.798 22.624C99.7127 22.24 99.542 21.9413 99.286 21.728C99.03 21.4933 98.7633 21.312 98.486 21.184C98.2087 21.0346 97.8993 20.928 97.558 20.864C97.2167 20.8 96.8753 20.8426 96.534 20.992ZM89.142 25.376C88.6727 25.7173 88.1073 25.8986 87.446 25.92C86.7847 25.9626 86.2193 25.824 85.75 25.504C85.2807 25.1626 84.9393 24.6826 84.726 24.064C84.5127 23.424 84.4807 22.8266 84.63 22.272C84.694 22.848 84.8753 23.36 85.174 23.808C85.4727 24.256 85.8033 24.608 86.166 24.864C86.55 25.12 86.998 25.312 87.51 25.44C88.0433 25.5466 88.5873 25.5253 89.142 25.376ZM99.478 23.04C99.5633 23.5093 99.4993 24.0106 99.286 24.544C99.094 25.056 98.7953 25.44 98.39 25.696C97.9633 25.9306 97.4727 25.9946 96.918 25.888C96.3633 25.8026 95.9047 25.6106 95.542 25.312C95.99 25.4613 96.4273 25.504 96.854 25.44C97.2807 25.3546 97.6647 25.216 98.006 25.024C98.326 24.832 98.6247 24.576 98.902 24.256C99.2007 23.9146 99.3927 23.5093 99.478 23.04ZM102.006 23.712C102.177 24.48 102.059 25.248 101.654 26.016C101.27 26.784 100.737 27.3813 100.054 27.808C99.3713 28.2133 98.6033 28.4266 97.75 28.448C96.8967 28.4693 96.15 28.224 95.51 27.712C96.278 27.968 97.0567 28.0853 97.846 28.064C98.6567 28.0426 99.3393 27.8613 99.894 27.52C100.427 27.1786 100.886 26.656 101.27 25.952C101.654 25.248 101.899 24.5013 102.006 23.712ZM95.03 25.408C94.8167 25.984 94.422 26.4853 93.846 26.912C93.2913 27.3386 92.7047 27.552 92.086 27.552C91.4673 27.5306 90.87 27.3066 90.294 26.88C89.7393 26.4533 89.3553 25.952 89.142 25.376C89.5473 25.8453 90.0167 26.1866 90.55 26.4C91.0833 26.6346 91.5953 26.7626 92.086 26.784C92.5767 26.784 93.0887 26.6666 93.622 26.432C94.1553 26.2186 94.6247 25.8773 95.03 25.408ZM112.984 1.31196C113.688 1.22662 114.36 1.38662 115 1.79196C115.64 2.19729 116.109 2.70929 116.408 3.32796C116.728 3.96796 116.856 4.66129 116.792 5.40796C116.728 6.15462 116.45 6.78396 115.96 7.29596C116.237 6.65596 116.397 5.98396 116.44 5.27996C116.482 4.57596 116.386 3.97862 116.152 3.48796C115.896 2.97596 115.469 2.52796 114.872 2.14396C114.296 1.73862 113.666 1.46129 112.984 1.31196ZM107.864 3.61596C108.184 3.18929 108.632 2.86929 109.208 2.65596C109.784 2.42129 110.328 2.38929 110.84 2.55996C111.352 2.70929 111.778 3.05062 112.12 3.58396C112.482 4.09596 112.674 4.61862 112.696 5.15196C112.482 4.66129 112.184 4.26662 111.8 3.96796C111.416 3.64796 111.021 3.42396 110.616 3.29596C110.21 3.16796 109.762 3.12529 109.272 3.16796C108.781 3.18929 108.312 3.33862 107.864 3.61596ZM106.328 7.93596C105.944 7.67996 105.624 7.30662 105.368 6.81596C105.133 6.30396 105.069 5.82396 105.176 5.37596C105.282 4.92796 105.549 4.54396 105.976 4.22396C106.424 3.88262 106.882 3.67996 107.352 3.61596C106.925 3.82929 106.594 4.11729 106.36 4.47996C106.146 4.84262 105.997 5.20529 105.912 5.56796C105.826 5.90929 105.805 6.29329 105.848 6.71996C105.89 7.14662 106.05 7.55196 106.328 7.93596ZM100.792 8.89596C100.642 8.49062 100.642 8.06396 100.792 7.61596C100.92 7.16796 101.144 6.80529 101.464 6.52796C101.805 6.25062 102.21 6.09062 102.68 6.04796C103.149 5.98396 103.565 6.05862 103.928 6.27196C103.01 6.12262 102.264 6.29329 101.688 6.78396C101.09 7.27462 100.792 7.97862 100.792 8.89596ZM112.696 8.06396C113.016 7.67996 113.453 7.40262 114.008 7.23196C114.562 7.03996 115.064 7.02929 115.512 7.19996C115.981 7.37062 116.354 7.71196 116.632 8.22396C116.93 8.71462 117.08 9.20529 117.08 9.69596C116.909 9.22662 116.653 8.85329 116.312 8.57596C115.97 8.27729 115.618 8.05329 115.256 7.90396C114.872 7.77596 114.456 7.71196 114.008 7.71196C113.56 7.69062 113.122 7.80796 112.696 8.06396ZM103.16 9.72796C103.16 9.36529 103.256 8.98129 103.448 8.57596C103.64 8.17062 103.896 7.90396 104.216 7.77596C104.557 7.64796 104.93 7.65862 105.336 7.80796C105.762 7.95729 106.093 8.15996 106.328 8.41596C106.008 8.26662 105.688 8.21329 105.368 8.25596C105.069 8.29862 104.781 8.37329 104.504 8.47996C104.248 8.58662 103.981 8.73596 103.704 8.92796C103.448 9.11996 103.266 9.38662 103.16 9.72796ZM101.208 15.776C100.525 15.5626 99.9595 15.136 99.5115 14.496C99.0635 13.856 98.8182 13.1733 98.7755 12.448C98.7328 11.744 98.8928 11.0506 99.2555 10.368C99.6182 9.68529 100.13 9.19462 100.792 8.89596C100.28 9.38662 99.8635 9.96262 99.5435 10.624C99.2235 11.264 99.0742 11.872 99.0955 12.448C99.1382 13.024 99.3622 13.6106 99.7675 14.208C100.152 14.8053 100.632 15.328 101.208 15.776ZM117.56 9.91996C117.965 10.1546 118.306 10.5173 118.584 11.008C118.861 11.4773 118.968 11.9466 118.904 12.416C118.818 12.8853 118.562 13.3013 118.136 13.664C117.73 14.0266 117.293 14.2506 116.824 14.336C117.229 14.1013 117.528 13.792 117.72 13.408C117.933 13.024 118.072 12.6506 118.136 12.288C118.2 11.9253 118.189 11.5306 118.104 11.104C118.04 10.6773 117.858 10.2826 117.56 9.91996ZM103.32 14.336C102.893 14.2293 102.488 13.9946 102.104 13.632C101.741 13.248 101.538 12.8426 101.496 12.416C101.453 11.9893 101.592 11.5626 101.912 11.136C102.21 10.7093 102.552 10.4 102.936 10.208C102.637 10.5066 102.445 10.8586 102.36 11.264C102.274 11.648 102.242 12.0106 102.264 12.352C102.306 12.6933 102.402 13.0453 102.552 13.408C102.701 13.7706 102.957 14.08 103.32 14.336ZM106.328 17.216C105.944 17.3653 105.506 17.408 105.016 17.344C104.546 17.28 104.184 17.088 103.928 16.768C103.65 16.4693 103.512 16.0746 103.512 15.584C103.533 15.0933 103.64 14.6773 103.832 14.336C103.768 14.7413 103.81 15.104 103.96 15.424C104.109 15.744 104.29 16.032 104.504 16.288C104.717 16.5226 104.973 16.736 105.272 16.928C105.57 17.12 105.922 17.216 106.328 17.216ZM116.344 14.336C116.386 14.7626 116.301 15.2106 116.088 15.68C115.874 16.1493 115.576 16.4693 115.192 16.64C114.829 16.832 114.392 16.864 113.88 16.736C113.389 16.608 112.994 16.3946 112.696 16.096C113.08 16.2666 113.464 16.32 113.848 16.256C114.232 16.192 114.573 16.096 114.872 15.968C115.17 15.8186 115.458 15.616 115.736 15.36C116.034 15.0826 116.237 14.7413 116.344 14.336ZM118.104 16.576C118.381 16.5333 118.658 16.576 118.936 16.704C119.213 16.8106 119.416 16.9813 119.544 17.216C119.693 17.4506 119.746 17.728 119.704 18.048C119.661 18.3466 119.554 18.592 119.384 18.784C119.49 18.5493 119.522 18.304 119.48 18.048C119.458 17.792 119.394 17.568 119.288 17.376C119.181 17.2053 119.021 17.0453 118.808 16.896C118.616 16.7253 118.381 16.6186 118.104 16.576ZM112.696 16.576C113.101 16.5973 113.517 16.736 113.944 16.992C114.37 17.248 114.648 17.5786 114.776 17.984C114.904 18.368 114.872 18.7946 114.68 19.264C114.488 19.712 114.232 20.064 113.912 20.32C114.125 19.9786 114.221 19.6266 114.2 19.264C114.2 18.88 114.157 18.528 114.072 18.208C113.965 17.888 113.805 17.5786 113.592 17.28C113.378 16.9813 113.08 16.7466 112.696 16.576ZM106.84 22.016C106.413 21.9093 105.997 21.6746 105.592 21.312C105.208 20.928 104.984 20.512 104.92 20.064C104.856 19.616 104.973 19.168 105.272 18.72C105.57 18.2506 105.922 17.92 106.328 17.728C106.008 18.048 105.805 18.4106 105.72 18.816C105.656 19.2213 105.645 19.6053 105.688 19.968C105.73 20.3306 105.837 20.704 106.008 21.088C106.2 21.4506 106.477 21.76 106.84 22.016ZM114.424 20.416C114.637 20.1173 114.957 19.872 115.384 19.68C115.81 19.4666 116.194 19.4133 116.536 19.52C116.898 19.6266 117.197 19.8826 117.432 20.288C117.688 20.672 117.826 21.056 117.848 21.44C117.698 21.0986 117.474 20.8426 117.176 20.672C116.898 20.48 116.621 20.3413 116.344 20.256C116.045 20.1706 115.725 20.128 115.384 20.128C115.064 20.1066 114.744 20.2026 114.424 20.416ZM117.848 21.952C118.168 22.144 118.434 22.4426 118.648 22.848C118.882 23.232 118.957 23.6053 118.872 23.968C118.786 24.3306 118.552 24.6506 118.168 24.928C117.805 25.184 117.442 25.3333 117.08 25.376C117.421 25.2053 117.666 24.9706 117.816 24.672C117.965 24.3733 118.072 24.0853 118.136 23.808C118.2 23.5093 118.221 23.2 118.2 22.88C118.2 22.5386 118.082 22.2293 117.848 21.952ZM110.04 24.864C109.698 25.056 109.282 25.1626 108.792 25.184C108.301 25.2053 107.906 25.0986 107.608 24.864C107.288 24.608 107.085 24.2453 107 23.776C106.914 23.2853 106.936 22.8586 107.064 22.496C107.085 22.88 107.192 23.2213 107.384 23.52C107.597 23.8186 107.832 24.064 108.088 24.256C108.322 24.448 108.6 24.6186 108.92 24.768C109.261 24.896 109.634 24.928 110.04 24.864ZM116.6 25.376C116.344 25.952 115.906 26.4426 115.288 26.848C114.69 27.2533 114.072 27.4346 113.432 27.392C112.792 27.3493 112.194 27.0933 111.64 26.624C111.085 26.1546 110.712 25.6106 110.52 24.992C110.904 25.504 111.362 25.8986 111.896 26.176C112.429 26.4533 112.952 26.6026 113.464 26.624C113.976 26.6453 114.509 26.56 115.064 26.368C115.64 26.176 116.152 25.8453 116.6 25.376ZM115.352 27.776C114.84 28.544 114.114 29.0773 113.176 29.376C112.258 29.6746 111.352 29.7173 110.456 29.504C109.56 29.2906 108.749 28.8426 108.024 28.16C107.32 27.4986 106.914 26.7093 106.808 25.792C107.234 26.624 107.778 27.36 108.44 28C109.101 28.64 109.794 29.0346 110.52 29.184C111.245 29.3546 112.045 29.3013 112.92 29.024C113.794 28.7466 114.605 28.3306 115.352 27.776ZM120.063 6.07996C119.871 5.29062 119.956 4.51196 120.319 3.74396C120.681 2.95462 121.193 2.33596 121.855 1.88796C122.516 1.43996 123.273 1.19462 124.127 1.15196C124.98 1.10929 125.737 1.32262 126.399 1.79196C125.631 1.55729 124.841 1.47196 124.031 1.53596C123.22 1.57862 122.548 1.78129 122.015 2.14396C121.481 2.50662 121.044 3.05062 120.703 3.77596C120.361 4.50129 120.148 5.26929 120.063 6.07996ZM124.831 4.92796C124.916 4.30929 125.193 3.72262 125.663 3.16796C126.132 2.61329 126.676 2.27196 127.295 2.14396C127.913 1.99462 128.553 2.06929 129.215 2.36796C129.876 2.66662 130.377 3.08262 130.719 3.61596C130.207 3.23196 129.663 2.98662 129.087 2.87996C128.511 2.77329 127.977 2.77329 127.487 2.87996C126.975 2.98662 126.473 3.22129 125.983 3.58396C125.513 3.92529 125.129 4.37329 124.831 4.92796ZM131.487 3.61596C131.785 3.12529 132.233 2.73062 132.831 2.43196C133.428 2.13329 134.004 2.03729 134.559 2.14396C135.135 2.25062 135.636 2.54929 136.063 3.03996C136.511 3.53062 136.788 4.06396 136.895 4.63996C136.617 4.12796 136.244 3.73329 135.775 3.45596C135.327 3.15729 134.879 2.96529 134.431 2.87996C133.983 2.79462 133.492 2.80529 132.959 2.91196C132.425 3.01862 131.935 3.25329 131.487 3.61596ZM139.199 3.07196C139.945 2.81596 140.713 2.83729 141.503 3.13596C142.313 3.43462 142.964 3.89329 143.455 4.51196C143.945 5.13062 144.244 5.86662 144.351 6.71996C144.479 7.55196 144.329 8.30929 143.903 8.99196C144.052 8.22396 144.073 7.44529 143.967 6.65596C143.86 5.86662 143.604 5.21596 143.199 4.70396C142.815 4.21329 142.249 3.82929 141.503 3.55196C140.756 3.25329 139.988 3.09329 139.199 3.07196ZM137.375 4.83196C137.695 4.61862 138.1 4.49062 138.591 4.44796C139.081 4.40529 139.487 4.50129 139.807 4.73596C140.127 4.97062 140.34 5.33329 140.447 5.82396C140.553 6.29329 140.543 6.71996 140.415 7.10396C140.393 6.69862 140.276 6.35729 140.063 6.07996C139.849 5.78129 139.615 5.53596 139.359 5.34396C139.081 5.15196 138.772 5.00262 138.431 4.89596C138.111 4.76796 137.759 4.74662 137.375 4.83196ZM121.727 7.93596C121.556 7.57329 121.481 7.14662 121.503 6.65596C121.524 6.16529 121.673 5.78129 121.951 5.50396C122.228 5.20529 122.612 5.03462 123.103 4.99196C123.593 4.94929 124.02 5.01329 124.383 5.18396C123.999 5.16262 123.647 5.24796 123.327 5.43996C123.007 5.61062 122.74 5.80262 122.527 6.01596C122.292 6.25062 122.089 6.52796 121.919 6.84796C121.748 7.16796 121.684 7.53062 121.727 7.93596ZM120.767 12.8C120.361 12.5653 120.02 12.2133 119.743 11.744C119.465 11.2533 119.369 10.7733 119.455 10.304C119.519 9.85596 119.764 9.45062 120.191 9.08796C120.617 8.70396 121.055 8.47996 121.503 8.41596C121.097 8.65062 120.788 8.95996 120.575 9.34396C120.383 9.70662 120.255 10.0693 120.191 10.432C120.127 10.816 120.127 11.2213 120.191 11.648C120.276 12.0533 120.468 12.4373 120.767 12.8ZM141.311 8.63996C141.417 8.91729 141.449 9.25862 141.407 9.66396C141.385 10.048 141.257 10.336 141.023 10.528C140.788 10.72 140.479 10.8053 140.095 10.784C139.711 10.7413 139.391 10.6453 139.135 10.496C139.433 10.5386 139.689 10.496 139.903 10.368C140.137 10.24 140.351 10.0906 140.543 9.91996C140.713 9.77062 140.884 9.59996 141.055 9.40796C141.225 9.19462 141.311 8.93862 141.311 8.63996ZM143.903 8.99196C144.329 9.14129 144.681 9.41862 144.959 9.82396C145.257 10.2293 145.417 10.6666 145.439 11.136C145.439 11.584 145.311 12.0213 145.055 12.448C144.799 12.8746 144.457 13.1733 144.031 13.344C144.777 12.6826 145.14 11.9466 145.119 11.136C145.097 10.3253 144.692 9.61062 143.903 8.99196ZM129.663 9.18396C129.919 9.35462 130.153 9.58929 130.367 9.88796C130.239 9.58929 130.164 9.29062 130.143 8.99196C130.292 9.37596 130.505 9.66396 130.783 9.85596C131.081 10.048 131.38 10.1973 131.679 10.304C131.977 10.4106 132.308 10.4746 132.671 10.496C133.033 10.496 133.375 10.4 133.695 10.208C133.46 10.5066 133.119 10.752 132.671 10.944C132.223 11.136 131.817 11.168 131.455 11.04C131.177 10.9333 130.921 10.7413 130.687 10.464C130.836 10.784 130.932 11.1253 130.975 11.488C131.039 11.8506 131.028 12.2026 130.943 12.544C130.772 13.12 130.409 13.6213 129.855 14.048C129.3 14.4746 128.724 14.72 128.127 14.784C128.681 14.528 129.129 14.176 129.471 13.728C129.833 13.28 130.079 12.8213 130.207 12.352C130.335 11.8613 130.356 11.3386 130.271 10.784C130.207 10.208 130.004 9.67462 129.663 9.18396ZM133.855 12.832C134.047 12.32 134.367 11.8613 134.815 11.456C134.516 11.1573 134.303 10.8373 134.175 10.496C134.431 10.816 134.761 11.0506 135.167 11.2C135.721 10.8373 136.276 10.656 136.831 10.656C137.257 10.656 137.684 10.7626 138.111 10.976C138.303 10.8266 138.473 10.6666 138.623 10.496C138.559 10.688 138.463 10.88 138.335 11.072C139.081 11.4986 139.583 12.0853 139.839 12.832C139.561 12.512 139.252 12.2453 138.911 12.032C138.569 11.8186 138.228 11.6586 137.887 11.552C137.673 11.7653 137.439 11.936 137.183 12.064C136.927 12.1706 136.671 12.224 136.415 12.224C136.009 12.224 135.604 12.0853 135.199 11.808C134.665 12.0426 134.217 12.384 133.855 12.832ZM136.831 11.424C136.703 11.424 136.564 11.4346 136.415 11.456C136.564 11.456 136.703 11.4453 136.831 11.424ZM140.351 12.832C140.777 12.832 141.204 12.9706 141.631 13.248C142.079 13.504 142.367 13.824 142.495 14.208C142.623 14.6133 142.591 15.0506 142.399 15.52C142.207 15.9893 141.951 16.352 141.631 16.608C141.844 16.2666 141.94 15.904 141.919 15.52C141.919 15.136 141.865 14.784 141.759 14.464C141.652 14.144 141.481 13.8346 141.247 13.536C141.033 13.216 140.735 12.9813 140.351 12.832ZM132.063 16.384C131.764 16.128 131.519 15.776 131.327 15.328C131.156 14.88 131.135 14.4746 131.263 14.112C131.412 13.728 131.689 13.4186 132.095 13.184C132.521 12.9493 132.937 12.832 133.343 12.832C132.959 12.96 132.66 13.1733 132.447 13.472C132.255 13.7706 132.105 14.0693 131.999 14.368C131.892 14.6666 131.828 14.9973 131.807 15.36C131.785 15.7013 131.871 16.0426 132.063 16.384ZM120.863 18.112C120.372 17.9626 119.935 17.664 119.551 17.216C119.188 16.7466 118.996 16.256 118.975 15.744C118.975 15.2533 119.156 14.7733 119.519 14.304C119.881 13.8346 120.297 13.504 120.767 13.312C120.383 13.6533 120.116 14.048 119.967 14.496C119.817 14.9226 119.743 15.3386 119.743 15.744C119.764 16.1493 119.849 16.5653 119.999 16.992C120.169 17.4186 120.457 17.792 120.863 18.112ZM128.127 15.296C128.617 15.3386 129.087 15.5413 129.535 15.904C130.004 16.2453 130.303 16.6506 130.431 17.12C130.537 17.6106 130.473 18.1226 130.239 18.656C130.004 19.168 129.684 19.5626 129.279 19.84C129.556 19.4346 129.716 19.008 129.759 18.56C129.801 18.112 129.78 17.696 129.695 17.312C129.588 16.928 129.407 16.5546 129.151 16.192C128.895 15.808 128.553 15.5093 128.127 15.296ZM129.695 20.096C129.801 19.6906 130.025 19.296 130.367 18.912C130.708 18.528 131.092 18.304 131.519 18.24C131.625 18.2186 131.743 18.2186 131.871 18.24C131.785 17.7706 131.86 17.3333 132.095 16.928C132.052 17.2266 132.095 17.4933 132.223 17.728C132.372 17.9626 132.532 18.176 132.703 18.368C132.873 18.56 133.065 18.7413 133.279 18.912C133.492 19.0826 133.759 19.1573 134.079 19.136C133.929 19.2 133.759 19.2426 133.567 19.264C133.652 19.3493 133.716 19.4453 133.759 19.552C133.631 19.4453 133.503 19.3493 133.375 19.264C133.161 19.2853 132.948 19.2746 132.735 19.232C132.543 19.168 132.372 19.0826 132.223 18.976C132.031 18.9546 131.828 18.9653 131.615 19.008C131.273 19.0506 130.921 19.1573 130.559 19.328C130.217 19.4773 129.929 19.7333 129.695 20.096ZM141.631 17.12C142.1 17.504 142.441 18.0266 142.655 18.688C142.889 19.3493 142.911 19.9573 142.719 20.512C142.527 21.088 142.143 21.5786 141.567 21.984C140.991 22.368 140.404 22.5706 139.807 22.592C140.361 22.3573 140.82 22.0266 141.183 21.6C141.567 21.1733 141.833 20.736 141.983 20.288C142.132 19.8186 142.185 19.3066 142.143 18.752C142.121 18.176 141.951 17.632 141.631 17.12ZM122.623 22.624C122.175 22.6453 121.705 22.5386 121.215 22.304C120.745 22.048 120.415 21.7066 120.223 21.28C120.052 20.8746 120.041 20.416 120.191 19.904C120.34 19.3706 120.585 18.944 120.927 18.624C120.713 19.0293 120.628 19.4453 120.671 19.872C120.713 20.2773 120.799 20.6506 120.927 20.992C121.076 21.312 121.289 21.632 121.567 21.952C121.844 22.2506 122.196 22.4746 122.623 22.624ZM121.727 25.12C121.001 25.2053 120.308 25.0453 119.647 24.64C118.985 24.2346 118.484 23.712 118.143 23.072C117.801 22.432 117.663 21.728 117.727 20.96C117.769 20.1706 118.047 19.5093 118.559 18.976C118.26 19.6373 118.1 20.3306 118.079 21.056C118.036 21.7813 118.153 22.4 118.431 22.912C118.687 23.4453 119.124 23.904 119.743 24.288C120.361 24.672 121.023 24.9493 121.727 25.12ZM139.423 22.944C139.487 23.5626 139.359 24.1813 139.039 24.8C138.719 25.4186 138.281 25.856 137.727 26.112C137.172 26.3893 136.543 26.4533 135.839 26.304C135.156 26.1546 134.601 25.8666 134.175 25.44C134.729 25.696 135.295 25.8133 135.871 25.792C136.447 25.7493 136.948 25.632 137.375 25.44C137.823 25.2266 138.239 24.9066 138.623 24.48C139.007 24.0533 139.273 23.5413 139.423 22.944ZM127.999 25.44C127.572 25.8453 127.028 26.112 126.367 26.24C125.705 26.3893 125.108 26.336 124.575 26.08C124.063 25.824 123.647 25.3973 123.327 24.8C123.028 24.1813 122.911 23.584 122.975 23.008C123.124 23.5626 123.38 24.0426 123.743 24.448C124.105 24.8533 124.5 25.1626 124.927 25.376C125.353 25.5893 125.833 25.7173 126.367 25.76C126.921 25.7813 127.465 25.6746 127.999 25.44ZM140.511 25.216C140.532 25.9413 140.319 26.6133 139.871 27.232C139.423 27.8506 138.868 28.2986 138.207 28.576C137.545 28.8533 136.831 28.9386 136.063 28.832C135.295 28.7253 134.665 28.4053 134.175 27.872C134.815 28.192 135.487 28.3946 136.191 28.48C136.916 28.5866 137.545 28.5226 138.079 28.288C138.612 28.0746 139.092 27.68 139.519 27.104C139.967 26.528 140.297 25.8986 140.511 25.216ZM133.663 25.536C133.471 26.0266 133.129 26.464 132.639 26.848C132.148 27.2533 131.636 27.456 131.103 27.456C130.548 27.456 130.025 27.2533 129.535 26.848C129.044 26.464 128.703 26.0266 128.511 25.536C128.852 25.9413 129.257 26.2293 129.727 26.4C130.196 26.592 130.655 26.688 131.103 26.688C131.529 26.688 131.977 26.592 132.447 26.4C132.916 26.2293 133.321 25.9413 133.663 25.536ZM152.349 7.00796C152.733 6.32529 153.309 5.83462 154.077 5.53596C154.845 5.21596 155.613 5.11996 156.381 5.24796C157.149 5.37596 157.853 5.71729 158.493 6.27196C159.133 6.80529 159.527 7.45596 159.677 8.22396C159.271 7.54129 158.77 6.95462 158.173 6.46396C157.575 5.97329 156.967 5.67462 156.349 5.56796C155.73 5.46129 155.058 5.54662 154.333 5.82396C153.607 6.10129 152.946 6.49596 152.349 7.00796ZM148.733 10.208C148.861 9.58929 149.181 9.03462 149.693 8.54396C150.205 8.03196 150.781 7.73329 151.421 7.64796C152.039 7.56262 152.658 7.70129 153.277 8.06396C153.917 8.40529 154.375 8.85329 154.653 9.40796C154.183 8.98129 153.661 8.69329 153.085 8.54396C152.53 8.39462 152.007 8.35196 151.517 8.41596C151.005 8.47996 150.493 8.66129 149.981 8.95996C149.49 9.25862 149.074 9.67462 148.733 10.208ZM155.165 9.47196C155.591 9.02396 156.146 8.71462 156.829 8.54396C157.511 8.37329 158.13 8.40529 158.685 8.63996C159.239 8.87462 159.687 9.30129 160.029 9.91996C160.391 10.5173 160.562 11.1253 160.541 11.744C160.349 11.1466 160.05 10.6453 159.645 10.24C159.261 9.83462 158.845 9.53596 158.397 9.34396C157.927 9.15196 157.405 9.05596 156.829 9.05596C156.274 9.05596 155.719 9.19462 155.165 9.47196ZM145.533 13.024C145.362 12.6613 145.298 12.2453 145.341 11.776C145.405 11.2853 145.575 10.9013 145.853 10.624C146.151 10.3466 146.535 10.1973 147.005 10.176C147.495 10.1546 147.922 10.24 148.285 10.432C147.879 10.3893 147.517 10.4533 147.197 10.624C146.877 10.7733 146.61 10.9546 146.397 11.168C146.162 11.4026 145.949 11.6693 145.757 11.968C145.586 12.2666 145.511 12.6186 145.533 13.024ZM160.861 12.128C161.437 12.1706 161.991 12.3946 162.525 12.8C163.058 13.184 163.41 13.6533 163.581 14.208C163.73 14.7626 163.677 15.3493 163.421 15.968C163.165 16.5866 162.802 17.0666 162.333 17.408C162.674 16.9386 162.866 16.4373 162.909 15.904C162.973 15.3706 162.951 14.88 162.845 14.432C162.717 13.984 162.482 13.5466 162.141 13.12C161.821 12.6933 161.394 12.3626 160.861 12.128ZM144.669 18.592C144.199 18.336 143.794 17.9413 143.453 17.408C143.133 16.8746 143.005 16.3413 143.069 15.808C143.133 15.2746 143.389 14.784 143.837 14.336C144.285 13.888 144.775 13.6 145.309 13.472C144.861 13.7706 144.519 14.144 144.285 14.592C144.05 15.04 143.901 15.4773 143.837 15.904C143.794 16.3306 143.826 16.7893 143.933 17.28C144.061 17.7493 144.306 18.1866 144.669 18.592ZM154.621 13.824C154.685 14.1866 154.642 14.5813 154.493 15.008C154.365 15.4346 154.141 15.7333 153.821 15.904C153.501 16.0746 153.127 16.1173 152.701 16.032C152.274 15.9253 151.922 15.7546 151.645 15.52C151.986 15.648 152.306 15.6693 152.605 15.584C152.925 15.4986 153.202 15.3813 153.437 15.232C153.693 15.0826 153.938 14.9013 154.173 14.688C154.407 14.4746 154.557 14.1866 154.621 13.824ZM142.525 20.832C141.842 20.576 141.309 20.1066 140.925 19.424C140.519 18.7413 140.317 18.0373 140.317 17.312C140.338 16.5866 140.562 15.8933 140.989 15.232C141.394 14.5706 141.938 14.1226 142.621 13.888C142.066 14.336 141.607 14.88 141.245 15.52C140.861 16.1386 140.658 16.736 140.637 17.312C140.637 17.9093 140.818 18.528 141.181 19.168C141.522 19.7866 141.97 20.3413 142.525 20.832ZM153.373 21.536C153.287 21.4506 153.202 21.3546 153.117 21.248C153.031 21.3333 152.946 21.408 152.861 21.472C152.925 21.3653 152.989 21.2693 153.053 21.184C152.733 20.7786 152.509 20.2986 152.381 19.744C152.274 19.1893 152.317 18.6773 152.509 18.208C152.615 17.9306 152.797 17.664 153.053 17.408C152.882 17.1306 152.669 16.8746 152.413 16.64C152.178 16.4053 151.901 16.2026 151.581 16.032C152.306 16.1173 152.946 16.448 153.501 17.024C154.119 16.5973 154.759 16.3946 155.421 16.416C155.101 16.5226 154.813 16.672 154.557 16.864C154.301 17.0346 154.066 17.2373 153.853 17.472C154.045 17.728 154.173 17.9946 154.237 18.272C154.343 18.784 154.29 19.3066 154.077 19.84C153.885 20.3733 153.597 20.8213 153.213 21.184C153.255 21.2906 153.309 21.408 153.373 21.536ZM153.213 18.496C153.085 18.8586 152.999 19.264 152.957 19.712C152.935 20.1386 152.999 20.5653 153.149 20.992C153.362 20.5866 153.49 20.16 153.533 19.712C153.575 19.264 153.554 18.848 153.469 18.464C153.447 18.3573 153.415 18.2506 153.373 18.144C153.33 18.272 153.277 18.3893 153.213 18.496ZM147.549 24.352C146.93 24.4373 146.29 24.3306 145.629 24.032C144.989 23.7333 144.519 23.3173 144.221 22.784C143.922 22.2293 143.826 21.6 143.933 20.896C144.039 20.192 144.295 19.6053 144.701 19.136C144.487 19.712 144.402 20.2986 144.445 20.896C144.509 21.472 144.669 21.9733 144.925 22.4C145.159 22.848 145.501 23.2533 145.949 23.616C146.418 23.9786 146.951 24.224 147.549 24.352ZM164.669 19.424C165.223 20.064 165.501 20.8426 165.501 21.76C165.522 22.656 165.319 23.4666 164.893 24.192C164.487 24.9173 163.89 25.504 163.101 25.952C162.311 26.4 161.501 26.5493 160.669 26.4C161.501 26.2506 162.279 25.9733 163.005 25.568C163.751 25.1413 164.295 24.6293 164.637 24.032C164.957 23.456 165.117 22.7413 165.117 21.888C165.117 21.0346 164.967 20.2133 164.669 19.424ZM162.109 20.384C162.407 20.8533 162.567 21.408 162.589 22.048C162.61 22.6666 162.461 23.2 162.141 23.648C161.799 24.096 161.319 24.4053 160.701 24.576C160.103 24.7466 159.538 24.7573 159.005 24.608C159.559 24.5653 160.05 24.4053 160.477 24.128C160.903 23.8506 161.245 23.5413 161.501 23.2C161.778 22.8373 161.981 22.4106 162.109 21.92C162.237 21.4293 162.237 20.9173 162.109 20.384ZM147.933 27.168C147.101 27.488 146.247 27.488 145.373 27.168C144.498 26.8693 143.773 26.3893 143.197 25.728C142.621 25.0666 142.258 24.2773 142.109 23.36C141.959 22.4213 142.098 21.5786 142.525 20.832C142.375 21.6853 142.375 22.5493 142.525 23.424C142.674 24.2773 142.983 24.9706 143.453 25.504C143.901 26.0373 144.541 26.4533 145.373 26.752C146.205 27.0506 147.058 27.1893 147.933 27.168ZM154.141 25.696C153.821 26.2506 153.319 26.688 152.637 27.008C151.975 27.3493 151.325 27.4666 150.685 27.36C150.045 27.2533 149.469 26.9226 148.957 26.368C148.445 25.8346 148.125 25.248 147.997 24.608C148.338 25.1626 148.765 25.6106 149.277 25.952C149.789 26.2933 150.301 26.5066 150.813 26.592C151.325 26.6986 151.879 26.6773 152.477 26.528C153.095 26.3786 153.65 26.1013 154.141 25.696ZM158.557 24.832C158.493 25.2373 158.311 25.6426 158.013 26.048C157.714 26.4533 157.351 26.6986 156.925 26.784C156.519 26.8693 156.093 26.784 155.645 26.528C155.218 26.2933 154.887 26.0053 154.653 25.664C154.994 25.92 155.346 26.0586 155.709 26.08C156.093 26.1226 156.445 26.1013 156.765 26.016C157.106 25.952 157.437 25.8346 157.757 25.664C158.098 25.472 158.365 25.1946 158.557 24.832Z" fill="#0466C8"/>
</svg>
