<svg width="30" height="30" viewBox="0 0 30 30" fill="none" xmlns="http://www.w3.org/2000/svg">
<g clip-path="url(#clip0_623_584535)">
<path fill-rule="evenodd" clip-rule="evenodd" d="M26.25 22.5C26.5815 22.5 26.8995 22.6317 27.1339 22.8661C27.3683 23.1005 27.5 23.4185 27.5 23.75C27.5 24.0815 27.3683 24.3995 27.1339 24.6339C26.8995 24.8683 26.5815 25 26.25 25H2.50001C2.16849 25 1.85054 24.8683 1.61612 24.6339C1.3817 24.3995 1.25001 24.0815 1.25001 23.75C1.25001 23.4185 1.3817 23.1005 1.61612 22.8661C1.85054 22.6317 2.16849 22.5 2.50001 22.5H26.25ZM15 6.25C19.03 6.25 22.4275 7.59375 24.835 9.48625C27.1988 11.3438 28.75 13.8562 28.75 16.25C28.75 17.3025 28.4275 18.2 27.8588 18.925C27.305 19.6325 26.5663 20.1125 25.8138 20.4425C24.3313 21.09 22.5675 21.25 21.25 21.25H3.74251C3.4146 21.2498 3.08995 21.185 2.78713 21.0592C2.48431 20.9334 2.20927 20.7492 1.97776 20.5169C1.74624 20.2847 1.56279 20.0091 1.43792 19.7059C1.31304 19.4028 1.24919 19.0779 1.25001 18.75V8.75C1.25001 7.37375 2.36251 6.25 3.74751 6.25H15ZM26.0213 15H3.75001V18.75H21.25C22.4325 18.75 23.7938 18.5975 24.8125 18.1512C25.3088 17.9338 25.6638 17.6725 25.8913 17.3825C26.1038 17.1125 26.25 16.76 26.25 16.25C26.25 15.8675 26.175 15.445 26.0213 15ZM8.75001 8.75H3.75001V12.5H8.75001V8.75ZM15 8.75H11.25V12.5H16.25V8.8C15.8417 8.76667 15.425 8.75 15 8.75ZM18.75 9.22875V12.5H24.4388C24.0837 12.1211 23.6996 11.7705 23.29 11.4513C22.0875 10.5063 20.5525 9.7075 18.75 9.22875Z" fill="#0353A4"/>
</g>
<defs>
<clipPath id="clip0_623_584535">
<rect width="30" height="30" fill="white"/>
</clipPath>
</defs>
</svg>
